<svg width="87" height="66" viewBox="0 0 87 66" fill="none" xmlns="http://www.w3.org/2000/svg">
<g clip-path="url(#clip0_1283_5164)">
<path d="M86.4728 65.3398H0.527344V1.18783V0.527832H1.18643H85.9455H86.6046V1.18783V65.3398H86.4728ZM1.84553 64.0198H85.2864V2.90383L62.2183 28.7758C60.1092 31.1518 58.9228 32.3398 55.3637 32.3398H32.2955C28.7364 32.3398 26.891 31.0198 24.7819 28.7758L1.84553 2.90383V64.0198ZM2.63643 1.84783L25.8364 27.9838C27.9455 30.3598 29.5273 31.1518 32.2955 31.1518H55.3637C58.2637 31.1518 59.0546 30.3598 61.1637 27.9838L84.3637 1.84783H2.63643Z" fill="#181818"/>
<path d="M38.8865 14.916L43.5001 19.536L48.1137 14.916" stroke="#232323"/>
<path d="M43.5 19.5358V8.05176" stroke="#232323"/>
<path d="M23.4636 26.3999H63.5364" stroke="#181818"/>
</g>
<defs>
<clipPath id="clip0_1283_5164">
<rect width="87" height="66" fill="white"/>
</clipPath>
</defs>
</svg>
