<svg width="24" height="24" viewBox="0 0 24 24" fill="none" xmlns="http://www.w3.org/2000/svg">
<mask id="mask0_2408_3061" style="mask-type:alpha" maskUnits="userSpaceOnUse" x="0" y="0" width="24" height="24">
<circle cx="12" cy="12" r="12" fill="#D9D9D9"/>
</mask>
<g mask="url(#mask0_2408_3061)">
<path d="M-3.21739 24H27.5031C28.4907 23.9438 29.2857 23.1125 29.2857 22.1062V1.89375C29.2857 0.85625 28.4472 0.00625 27.4161 0H-3.13043C-4.16149 0.00625 -5 0.85625 -5 1.89375V22.1C-5 23.1125 -4.20497 23.9438 -3.21739 24Z" fill="#FEFEFE"/>
<path d="M9.74534 14.3938V24H14.5155V14.3938H29.2857V9.59375H14.5155V0H9.74534V9.59375H-5V14.3938H9.74534Z" fill="#C8102E"/>
<path d="M16.1071 7.76875V0H27.4301C28.2127 0.0125 28.8835 0.50625 29.1568 1.2L16.1071 7.76875Z" fill="#012169"/>
<path d="M16.1071 16.231V23.9998H27.5046C28.2562 23.956 28.8897 23.4685 29.1568 22.7998L16.1071 16.231Z" fill="#012169"/>
<path d="M8.15876 16.231V23.9998H-3.21391C-3.96547 23.956 -4.60522 23.4685 -4.86609 22.7873L8.15876 16.231Z" fill="#012169"/>
<path d="M8.15876 7.76875V0H-3.13938C-3.92199 0.0125 -4.59901 0.5125 -4.86609 1.2125L8.15876 7.76875Z" fill="#012169"/>
<path d="M29.2877 2.03125L17.4554 8H20.1013L29.2877 3.375V2.03125Z" fill="#C8102E"/>
<path d="M6.80746 16H4.16149L-5 20.6125V21.9562L6.8323 16H6.80746Z" fill="#C8102E"/>
<path d="M1.53416 8.00613H4.18012L-5 3.38113V4.71863L1.53416 8.00613Z" fill="#C8102E"/>
<path d="M22.7174 15.9939H20.0714L29.2826 20.6376V19.3001L22.7174 15.9939Z" fill="#C8102E"/>
</g>
</svg>
