    <svg width="25" height="24" viewBox="0 0 25 24" fill="none" xmlns="http://www.w3.org/2000/svg">
<path d="M19 12.6499V16.3499C19 19.4699 16.09 21.9999 12.5 21.9999C8.91 21.9999 6 19.4699 6 16.3499V12.6499C6 15.7699 8.91 17.9999 12.5 17.9999C16.09 17.9999 19 15.7699 19 12.6499Z" stroke="#232323" stroke-width="1.5" stroke-linecap="round" stroke-linejoin="round"/>
<path d="M19 7.65C19 8.56 18.75 9.4 18.31 10.12C17.24 11.88 15.04 13 12.5 13C9.96 13 7.76 11.88 6.69 10.12C6.25 9.4 6 8.56 6 7.65C6 6.09 6.72999 4.68 7.89999 3.66C9.07999 2.63 10.7 2 12.5 2C14.3 2 15.92 2.63 17.1 3.65C18.27 4.68 19 6.09 19 7.65Z" stroke="#232323" stroke-width="1.5" stroke-linecap="round" stroke-linejoin="round"/>
<path d="M19 7.65V12.65C19 15.77 16.09 18 12.5 18C8.91 18 6 15.77 6 12.65V7.65C6 4.53 8.91 2 12.5 2C14.3 2 15.92 2.63 17.1 3.65C18.27 4.68 19 6.09 19 7.65Z" stroke="#232323" stroke-width="1.5" stroke-linecap="round" stroke-linejoin="round"/>
</svg>