<svg width="161" height="54" viewBox="0 0 161 54" fill="none" xmlns="http://www.w3.org/2000/svg">
<g clip-path="url(#clip0_2429_3098)">
<path d="M141.811 1.9736C141.798 1.95878 141.782 1.94648 141.765 1.9373L138.65 0.511557C138.633 0.49755 138.612 0.488425 138.59 0.485154L136.258 0.155121H136.215L133.883 0.511557C133.87 0.508586 133.856 0.508586 133.843 0.511557L130.745 1.9373C130.727 1.94557 130.711 1.95801 130.698 1.9736L129.032 3.90099C129.013 3.92544 129.002 3.95567 129.002 3.9868C129.002 4.01794 129.013 4.04816 129.032 4.07261L129.895 5.14852L129.945 5.19472L136.182 10.429C136.206 10.4505 136.238 10.4622 136.271 10.4621C136.306 10.4627 136.339 10.4509 136.365 10.429L142.611 5.18152L142.651 5.14852L143.514 4.07261C143.531 4.04803 143.541 4.01861 143.541 3.98845C143.541 3.95829 143.531 3.92888 143.514 3.9043L141.811 1.9736ZM141.618 2.17822L142.951 3.68977L141.022 3.0132L139.733 1.42905L139.46 1.17822L141.618 2.17822ZM140.496 2.83829L138.857 2.26733L139.523 1.66997L140.496 2.83829ZM133.969 0.772281L136.231 0.442248L138.51 0.772281L139.343 1.47525L138.547 2.17822L136.288 2.50825L134.006 2.17822L133.173 1.47195L133.969 0.772281ZM135.968 6.19802L132.97 5.56436L134.869 4.67657L135.968 6.19802ZM134.183 2.48515L136.042 2.75578L134.956 4.22443L134.183 2.48515ZM136.038 6.49836L134.962 7.81849L133.033 5.85479L136.038 6.49836ZM135.099 4.50166L136.258 2.93069L137.417 4.50166L136.258 6.12542L135.099 4.50166ZM136.551 6.19802L137.637 4.67657L139.536 5.56436L136.551 6.19802ZM139.483 5.86799L137.557 7.83169L136.481 6.51156L139.483 5.86799ZM137.561 4.21783L136.485 2.75578L138.34 2.47195L137.561 4.21783ZM133.673 2.25413L132.007 2.83169L132.97 1.66997L133.673 2.25413ZM130.898 2.17492L133.113 1.15512C133.113 1.15512 132.86 1.37954 132.857 1.38614L131.524 3.0099L129.592 3.68647L130.898 2.17492ZM129.362 4.05611L131.168 3.42574L129.992 4.84489L129.362 4.05611ZM131.551 3.39604L132.364 5.42245L130.245 4.9736L131.551 3.39604ZM130.508 5.31353L132.447 5.72608L132.494 6.9802L130.508 5.31353ZM131.777 3.20793L133.876 2.47525L134.742 4.42245L132.657 5.41254L131.777 3.20793ZM132.777 7.22443L132.727 5.9439L134.852 8.10562L135.758 9.72608L132.777 7.22443ZM136.251 10.0363L135.132 8.03631L136.251 6.66007L137.371 8.03631L136.251 10.0363ZM139.726 7.23433L136.744 9.73598L137.651 8.11552L139.773 5.9538L139.726 7.23433ZM137.764 4.43235L138.633 2.48515L140.729 3.21783L139.853 5.40925L137.764 4.43235ZM140.016 6.9901L140.063 5.73598L142.001 5.32343L140.016 6.9901ZM140.142 5.43235L140.955 3.40594L142.261 4.9835L140.142 5.43235ZM142.514 4.85149L141.342 3.43235L143.147 4.06271L142.514 4.85149Z" fill="black"/>
<path d="M0 34.703H5.54667V0.841585H0V0.148514H9.29442C9.7608 0.148514 10.2272 0.148511 10.6936 0.125409C11.16 0.102307 11.6263 0.0825062 12.0927 0.0495029C12.5591 0.0164996 13.0255 0.0495056 13.4919 0.0264032C13.9583 0.00330093 14.4247 0 14.8911 0C15.8905 0 16.7788 0.0164996 17.5561 0.0495029C18.3357 0.0825062 19.0719 0.141912 19.7548 0.22442C20.4106 0.302683 21.0613 0.418388 21.7036 0.570956C22.3188 0.71837 22.9762 0.90759 23.6758 1.13861C25.5682 1.72552 27.3499 2.61757 28.9493 3.77888C30.3834 4.83477 31.6182 6.13299 32.5971 7.61386C33.5508 9.07554 34.2595 10.6804 34.6958 12.3663C35.1486 14.1296 35.3725 15.9429 35.3621 17.7624C35.389 19.7467 35.1196 21.7241 34.5626 23.6304C34.0765 25.2744 33.3347 26.8332 32.3639 28.2508C31.4651 29.5576 30.3736 30.7234 29.1258 31.7096C27.898 32.6698 26.5442 33.4603 25.1016 34.0594C24.3677 34.3985 23.608 34.6799 22.8296 34.901C22.108 35.0998 21.3734 35.2486 20.6309 35.3465C19.8825 35.4455 19.0574 35.5116 18.1558 35.5446C17.2541 35.5776 16.2214 35.5941 15.0576 35.5941C14.5579 35.5941 14.0249 35.5941 13.4586 35.571C12.8923 35.5479 12.3259 35.5281 11.7596 35.4951C11.1933 35.4621 10.6369 35.4389 10.0939 35.4224C9.55093 35.4059 9.01792 35.396 8.51822 35.396H0.0233167L0 34.703ZM10.5437 34.703C11.11 34.769 11.7685 34.8185 12.5191 34.8515C13.2698 34.8845 14.0938 34.901 14.991 34.901C16.1181 34.9018 17.2445 34.8445 18.3656 34.7294C19.4594 34.6186 20.5342 34.3691 21.5637 33.9868C22.5959 33.598 23.5578 33.0464 24.412 32.3531C25.3605 31.5636 26.1631 30.6166 26.7839 29.5545C27.8135 27.8599 28.5647 26.014 29.0092 24.0858C29.4402 22.0757 29.649 20.0252 29.6322 17.9703C29.6546 15.5878 29.4031 13.2106 28.8827 10.8845C28.4572 8.9164 27.6146 7.06028 26.4108 5.43894C25.2163 3.90309 23.6404 2.70008 21.8369 1.94719C19.938 1.12211 17.5894 0.709569 14.7911 0.709569C13.9583 0.709569 13.1987 0.709572 12.5191 0.759077L10.5437 0.858083V34.703Z" fill="#1D1D1B"/>
<path d="M45.023 23.1188C45.023 23.4488 45.023 23.7789 44.9964 24.1353C44.9697 24.4917 44.973 24.9175 44.973 25.4554C44.9761 26.5968 45.0428 27.7372 45.1729 28.8713C45.2849 29.9838 45.5798 31.0708 46.0457 32.0891C46.4908 33.0407 47.18 33.8601 48.0445 34.4654C48.9329 35.0924 50.1077 35.4059 51.5691 35.4059C52.8085 35.448 54.0428 35.2287 55.1902 34.7624C56.0428 34.4008 56.8099 33.8669 57.4422 33.1947C57.9513 32.6465 58.3655 32.0186 58.6681 31.3366C58.9346 30.7096 59.1345 30.198 59.2678 29.802L60.0173 29.9505C59.8559 30.4815 59.6635 31.0027 59.441 31.5116C59.1111 32.2592 58.6548 32.9457 58.0918 33.5413C57.3803 34.2866 56.5325 34.8914 55.5933 35.3234C54.5451 35.8339 53.1881 36.0891 51.5224 36.0891C49.9454 36.1046 48.3787 35.8362 46.8985 35.297C45.5315 34.7967 44.2838 34.0213 43.2341 33.0198C42.194 32.0194 41.3769 30.8142 40.8355 29.4818C40.2527 28.0246 39.9641 26.4683 39.986 24.901C39.986 23.4468 40.2829 22.0076 40.8588 20.67C42.0044 17.9435 44.1338 15.7374 46.8319 14.4818C49.1425 13.382 51.7936 13.2128 54.2275 14.0099C55.3137 14.3516 56.3228 14.8986 57.199 15.6205C58.1675 16.4289 58.9511 17.4325 59.4977 18.5644C60.1583 19.9909 60.4753 21.5501 60.4238 23.1188H45.023ZM55.3168 22.4257C55.3807 21.9996 55.4141 21.5695 55.4168 21.1386V19.901C55.4374 18.966 55.3253 18.0328 55.0836 17.1287C54.9149 16.4931 54.6079 15.9017 54.1842 15.396C53.8089 14.9726 53.3256 14.6569 52.785 14.4818C52.2131 14.2962 51.6146 14.2037 51.0127 14.2079C50.0363 14.1668 49.0674 14.3953 48.2144 14.868C47.4841 15.3103 46.8816 15.9322 46.4655 16.6733C46.0086 17.4942 45.6796 18.3787 45.4894 19.297C45.2683 20.3244 45.1269 21.3671 45.0663 22.4158L55.3168 22.4257Z" fill="#1D1D1B"/>
<path d="M83.4999 29.9505C83.3385 30.4815 83.146 31.0027 82.9236 31.5115C82.5937 32.2592 82.1374 32.9457 81.5744 33.5412C80.8629 34.2866 80.015 34.8914 79.0759 35.3234C78.0276 35.8339 76.6706 36.0891 75.005 36.0891C73.6672 36.0785 72.3379 35.8784 71.0573 35.495C69.6971 35.1024 68.4251 34.456 67.3096 33.5908C66.1354 32.6644 65.1869 31.4878 64.5346 30.1485C63.8173 28.7294 63.4597 26.9802 63.4619 24.901C63.4473 23.3519 63.7617 21.817 64.3847 20.396C64.9772 19.0446 65.8253 17.8179 66.8832 16.7822C67.9459 15.751 69.2021 14.9359 70.581 14.3828C72.0151 13.8053 73.5502 13.5137 75.0983 13.5247C76.0317 13.5314 76.9615 13.6421 77.8699 13.8548C78.781 14.0547 79.6569 14.3884 80.4684 14.8449C81.2381 15.271 81.9061 15.8564 82.4272 16.5611C82.9601 17.3221 83.2322 18.2326 83.2034 19.1584C83.2159 19.4733 83.1633 19.7874 83.0487 20.0814C82.9341 20.3754 82.76 20.6431 82.5371 20.868C82.278 21.1004 81.9742 21.2787 81.6439 21.3921C81.3137 21.5055 80.9637 21.5518 80.6149 21.528C80.0517 21.5295 79.4955 21.403 78.9893 21.1584C78.7456 21.0511 78.5409 20.8725 78.4027 20.6465C78.2645 20.4205 78.1995 20.158 78.2164 19.8944C78.2391 19.3181 78.3572 18.7495 78.5662 18.2112C78.7731 17.6838 78.8912 17.1264 78.916 16.5611C78.9083 16.1961 78.7958 15.8408 78.5917 15.5368C78.3876 15.2329 78.1002 14.9928 77.7633 14.8449C76.9426 14.4172 76.0254 14.2037 75.0983 14.2244C74.3317 14.229 73.5683 14.3209 72.823 14.4984C71.9802 14.7164 71.2283 15.1922 70.6742 15.8581C70.0257 16.5842 69.4927 17.6733 69.0752 19.1254C68.6577 20.5776 68.45 22.5578 68.4522 25.066C68.4463 26.4074 68.5376 27.7475 68.7254 29.0759C68.8739 30.2228 69.2116 31.3377 69.7248 32.3762C70.1774 33.2829 70.8678 34.0524 71.7236 34.604C72.5742 35.1474 73.6847 35.4191 75.0549 35.4191C76.2944 35.4612 77.5287 35.2419 78.6761 34.7756C79.5266 34.4165 80.2924 33.886 80.9248 33.2178C81.4339 32.6696 81.8481 32.0417 82.1507 31.3597C82.4172 30.7327 82.6171 30.2211 82.7503 29.8251L83.4999 29.9505Z" fill="#1D1D1B"/>
<path d="M85.9984 24.802C85.9855 23.2368 86.3534 21.6915 87.0711 20.297C88.4454 17.6078 90.7515 15.4989 93.5672 14.3564C94.8518 13.8014 96.2382 13.5149 97.6397 13.5149C99.0412 13.5149 100.428 13.8014 101.712 14.3564C104.528 15.4989 106.834 17.6078 108.208 20.297C108.927 21.6912 109.296 23.2365 109.284 24.802C109.292 26.3192 108.95 27.8182 108.285 29.1848C106.98 31.8883 104.723 34.0267 101.939 35.198C100.584 35.7856 99.1206 36.089 97.6414 36.089C96.1622 36.089 94.699 35.7856 93.344 35.198C90.5642 34.0259 88.3129 31.8872 87.0144 29.1848C86.3433 27.8196 85.9957 26.3205 85.9984 24.802ZM90.9954 24.802C90.9954 27.1452 91.1786 29.0099 91.545 30.396C91.8021 31.548 92.2954 32.6354 92.9942 33.5907C93.5218 34.2832 94.2561 34.7936 95.0929 35.0495C96.7599 35.5116 98.5229 35.5116 100.19 35.0495C101.027 34.7936 101.761 34.2832 102.289 33.5907C102.987 32.6354 103.481 31.548 103.738 30.396C104.104 29.0099 104.287 27.1452 104.287 24.802C104.314 23.1353 104.18 21.4699 103.888 19.8284C103.69 18.6726 103.274 17.5642 102.662 16.5611C102.168 15.7672 101.447 15.1374 100.59 14.7525C98.6924 14.0264 96.5903 14.0264 94.6932 14.7525C93.835 15.1372 93.1124 15.7669 92.6177 16.5611C92.0066 17.5644 91.5919 18.6729 91.3951 19.8284C91.1027 21.4699 90.9688 23.1353 90.9954 24.802Z" fill="#1D1D1B"/>
<path d="M111.383 34.703H115.231V14.8449H111.383V14.1518H119.428V19.1518H119.528C119.699 18.5721 119.922 18.0088 120.194 17.4687C120.517 16.8084 120.939 16.1999 121.444 15.6634C121.995 15.0707 122.645 14.5761 123.366 14.2013C124.211 13.7837 125.147 13.5797 126.091 13.6073C126.776 13.5923 127.457 13.7193 128.09 13.9802C128.614 14.1996 129.089 14.5192 129.489 14.9208C129.852 15.2956 130.126 15.7469 130.288 16.2409C130.452 16.7194 130.537 17.2209 130.538 17.7261C130.538 18.8152 130.288 19.5413 129.789 19.9043C129.281 20.2698 128.667 20.461 128.04 20.4489C126.574 20.4489 125.841 19.9868 125.841 19.0627C125.833 18.8201 125.867 18.5779 125.941 18.3465C126.008 18.165 126.081 17.9835 126.164 17.802C126.255 17.601 126.331 17.3936 126.391 17.1815C126.468 16.8572 126.501 16.5244 126.491 16.1914C126.491 15.1353 125.908 14.6073 124.742 14.6073C124.128 14.6342 123.537 14.8409 123.043 15.2013C122.379 15.6665 121.814 16.2549 121.377 16.934C120.817 17.7858 120.379 18.7112 120.078 19.6832C119.711 20.8775 119.534 22.1213 119.555 23.3696V34.7063H123.886V35.3993H111.393L111.383 34.703Z" fill="#1D1D1B"/>
<path d="M130.272 34.703H134.119V14.8515H130.272V14.1584H138.417V34.703H142.265V35.396H130.272V34.703Z" fill="#1D1D1B"/>
<path d="M144.963 28.4653H145.513C145.753 29.2868 146.054 30.0898 146.412 30.868C146.782 31.6825 147.279 32.4343 147.884 33.0957C148.527 33.7876 149.3 34.3482 150.16 34.7459C151.18 35.2 152.29 35.4201 153.408 35.3894C154.441 35.4008 155.446 35.0606 156.256 34.4257C157.086 33.7657 157.505 32.7327 157.505 31.2805C157.505 30.0264 157.18 29.1463 156.529 28.6403C155.847 28.1104 155.079 27.6996 154.257 27.4257L150.36 26.0891C149.86 25.9241 149.318 25.7184 148.734 25.4719C148.139 25.2164 147.591 24.8651 147.112 24.4323C146.587 23.9532 146.17 23.3709 145.886 22.7228C145.541 21.8744 145.379 20.9636 145.413 20.0495C145.403 19.1619 145.591 18.283 145.962 17.4752C146.324 16.679 146.843 15.9624 147.489 15.3674C148.134 14.7723 148.892 14.3108 149.72 14.0099C150.64 13.6731 151.614 13.5054 152.595 13.5148C153.191 13.5012 153.786 13.5599 154.367 13.6898C154.817 13.8053 155.21 13.9208 155.543 14.0363C155.876 14.1518 156.173 14.2673 156.443 14.3828C156.744 14.505 157.067 14.5635 157.392 14.5545C157.549 14.5656 157.706 14.5347 157.847 14.465C157.987 14.3954 158.107 14.2894 158.192 14.1584H158.741V19.7954H158.192C157.963 19.0811 157.696 18.3794 157.392 17.6931C157.111 17.0481 156.749 16.4405 156.316 15.8845C155.903 15.3591 155.373 14.9355 154.767 14.6469C154.087 14.3365 153.344 14.1841 152.595 14.2013C150.996 14.2013 149.754 14.5567 148.871 15.2673C148.439 15.6047 148.093 16.038 147.862 16.5322C147.63 17.0264 147.519 17.5677 147.538 18.1122C147.51 18.5734 147.598 19.0344 147.794 19.4537C147.99 19.8731 148.287 20.2377 148.661 20.5148C149.685 21.1869 150.809 21.6959 151.992 22.0231L155.656 23.2112C157.081 23.6583 158.392 24.4009 159.504 25.3894C160.004 25.8586 160.396 26.4284 160.654 27.0602C160.913 27.6921 161.032 28.3715 161.003 29.0528C161.001 29.9529 160.822 30.844 160.477 31.6766C160.131 32.5299 159.602 33.2988 158.928 33.9307C158.201 34.6011 157.354 35.1296 156.429 35.4884C155.355 35.9009 154.21 36.1027 153.058 36.0825C152.376 36.089 151.696 36.0148 151.033 35.8614C150.415 35.7118 149.849 35.5545 149.334 35.3894C148.817 35.2244 148.334 35.0594 147.911 34.9208C147.527 34.7809 147.121 34.705 146.712 34.6964C146.427 34.671 146.142 34.751 145.912 34.9208C145.755 35.0555 145.62 35.2136 145.513 35.3894H144.963V28.4653Z" fill="#1D1D1B"/>
<path d="M34.3594 49.5446C34.3594 51.9736 32.757 53.8779 30.2685 53.8779H27.6301V45.2079H30.2685C32.757 45.2079 34.3594 47.1122 34.3594 49.5446ZM33.7664 49.5446C33.7664 47.3564 32.3373 45.769 30.2685 45.769H28.2198V53.3168H30.2685C32.3373 53.3168 33.7664 51.7294 33.7664 49.5446Z" fill="#1D1D1B"/>
<path d="M42.4078 45.2079H43.0008V53.8779H42.4078V45.2079Z" fill="#1D1D1B"/>
<path d="M56.5094 51.5082H52.5118L51.649 53.8779H51.0327L54.1808 45.2079H54.8471L58.0019 53.8779H57.3856L56.5094 51.5082ZM56.3129 50.9472L54.514 45.9967L52.7117 50.9472H56.3129Z" fill="#1D1D1B"/>
<path d="M74.5785 45.2079V53.8779H73.9756V46.2871L70.4877 51.9538H70.1179L66.63 46.2871V53.8779H66.037V45.2079H66.63L70.2944 51.1683L73.9589 45.2079H74.5785Z" fill="#1D1D1B"/>
<path d="M82.8603 49.5446C82.8826 48.6904 83.1587 47.8617 83.654 47.1622C84.1494 46.4628 84.842 45.9236 85.6452 45.6122C86.4483 45.3008 87.3264 45.2311 88.1694 45.4116C89.0124 45.5922 89.7829 46.0151 90.3845 46.6274C90.986 47.2397 91.3919 48.0142 91.5514 48.8539C91.7108 49.6937 91.6166 50.5613 91.2807 51.3483C90.9448 52.1353 90.3821 52.8066 89.6629 53.2783C88.9438 53.75 88.1001 54.001 87.2377 54C86.6538 53.9962 86.0765 53.8775 85.5393 53.6507C85.0021 53.424 84.5157 53.0938 84.1084 52.6792C83.7012 52.2647 83.3811 51.7741 83.1668 51.236C82.9526 50.6979 82.8484 50.1229 82.8603 49.5446ZM91.0221 49.5446C90.994 48.8089 90.7481 48.0977 90.315 47.4995C89.882 46.9013 89.2809 46.4425 88.5866 46.1802C87.8922 45.918 87.1354 45.8638 86.4103 46.0245C85.6851 46.1852 85.0237 46.5536 84.5083 47.084C83.993 47.6143 83.6465 48.2831 83.5119 49.0071C83.3774 49.731 83.4608 50.4782 83.7517 51.1556C84.0426 51.833 84.5282 52.4107 85.1481 52.8167C85.7679 53.2227 86.4946 53.4391 87.2377 53.4389C87.7443 53.4295 88.2441 53.3213 88.7085 53.1204C89.1729 52.9196 89.5928 52.6301 89.9442 52.2684C90.2956 51.9068 90.5717 51.4801 90.7566 51.0127C90.9416 50.5454 91.0318 50.0465 91.0221 49.5446Z" fill="#1D1D1B"/>
<path d="M106.489 45.2079V53.8779H105.9L100.416 46.198V53.868H99.8268V45.2079H100.416L105.903 52.8779V45.2079H106.489Z" fill="#1D1D1B"/>
<path d="M121.567 49.5446C121.567 51.9736 119.965 53.8779 117.473 53.8779H114.834V45.2079H117.473C119.965 45.2079 121.567 47.1122 121.567 49.5446ZM120.974 49.5446C120.974 47.3564 119.545 45.769 117.473 45.769H115.427V53.3168H117.473C119.545 53.3168 120.974 51.7294 120.974 49.5446Z" fill="#1D1D1B"/>
<path d="M129.775 51.6799C129.885 52.8779 130.871 53.4389 131.844 53.4389C133.067 53.4389 133.843 52.802 133.843 51.8746C133.843 50.7525 132.844 50.1914 131.734 49.6766C130.428 49.0429 129.382 48.5413 129.382 47.1254C129.382 45.9274 130.452 45.0858 131.771 45.0858C132.357 45.074 132.925 45.285 133.359 45.6754C133.792 46.0658 134.059 46.6059 134.103 47.1848H133.51C133.47 46.7603 133.271 46.3662 132.951 46.0811C132.631 45.796 132.214 45.6409 131.784 45.6469C130.785 45.6469 129.985 46.2574 129.985 47.1386C129.985 48.2838 130.885 48.6502 131.907 49.1188C133.327 49.7789 134.449 50.4851 134.449 51.8779C134.449 53.1584 133.387 53.9901 131.871 53.9901C130.515 53.9901 129.309 53.1122 129.206 51.6799H129.775Z" fill="#1D1D1B"/>
</g>
<defs>
<clipPath id="clip0_2429_3098">
<rect width="161" height="54" fill="white"/>
</clipPath>
</defs>
</svg>
