<svg width="50" height="18" viewBox="0 0 50 18" fill="none" xmlns="http://www.w3.org/2000/svg">
<path d="M21.001 10.5459H0.000976562V17.5419H21.001V10.5459Z" fill="#84B740"/>
<path d="M21.001 1H0.000976562V8.002H21.001V1Z" fill="#259BD6"/>
<path d="M42.004 16.1199L41.91 16.1389C41.6873 16.1933 41.4592 16.2225 41.23 16.2259C40.681 16.2259 40.03 15.9449 40.03 14.6259C40.03 13.9459 40.142 13.0419 41.165 13.0419H41.171C41.4253 13.0584 41.6766 13.1065 41.919 13.1849L42 13.2099L42.004 16.1199ZM42.172 9.52893L42.004 9.55994V12.0039L41.854 11.9599L41.811 11.9479C41.5102 11.8516 41.1977 11.7971 40.882 11.7859C38.837 11.7859 38.407 13.3319 38.407 14.6289C38.3641 15.0016 38.4048 15.3791 38.5263 15.734C38.6477 16.0889 38.8468 16.4123 39.109 16.6805C39.3712 16.9488 39.6899 17.1551 40.042 17.2846C40.394 17.414 40.7705 17.4634 41.144 17.4289C41.763 17.4462 42.3806 17.3596 42.971 17.1729C43.1777 17.1428 43.3645 17.0338 43.4925 16.8688C43.6204 16.7037 43.6794 16.4955 43.657 16.2879V9.27393C43.171 9.36093 42.666 9.44894 42.173 9.52994" fill="#27292D"/>
<path d="M48.081 16.1639L47.994 16.1888L47.6819 16.2699C47.4358 16.3387 47.1824 16.3783 46.9269 16.3879C46.4469 16.3879 46.16 16.1508 46.16 15.7458C46.16 15.4838 46.278 15.0459 47.06 15.0459H48.076L48.081 16.1639ZM47.364 11.7559C46.6551 11.7688 45.9526 11.8909 45.2809 12.1179L44.757 12.2739L44.9319 13.4589L45.443 13.2909C45.9929 13.1141 46.5654 13.0174 47.1429 13.0038C47.3679 13.0038 48.053 13.0038 48.053 13.7458V14.0699H47.099C45.359 14.0699 44.555 14.6249 44.555 15.8159C44.555 16.8319 45.2969 17.4429 46.5439 17.4429C47.0107 17.431 47.4748 17.3683 47.928 17.2559L47.9529 17.2499L47.978 17.2559L48.134 17.2809C48.62 17.3679 49.125 17.4549 49.618 17.5489V13.6559C49.618 12.3959 48.857 11.7559 47.361 11.7559" fill="#27292D"/>
<path d="M35.9659 16.1639L35.879 16.1889L35.567 16.27C35.3212 16.3392 35.0681 16.3787 34.813 16.3879C34.333 16.3879 34.046 16.1509 34.046 15.7459C34.046 15.4839 34.164 15.046 34.946 15.046H35.962V16.1679L35.9659 16.1639ZM35.2549 11.7559C34.5461 11.7684 33.8435 11.8905 33.172 12.1179L32.6479 12.2739L32.823 13.4559L33.334 13.2879C33.8839 13.1111 34.4565 13.0145 35.034 13.0009C35.258 13.0009 35.944 13.0009 35.944 13.7429V14.067H34.99C33.25 14.067 32.4399 14.6219 32.4399 15.8129C32.4399 16.8289 33.1819 17.4399 34.4399 17.4399C34.9067 17.4281 35.3708 17.3654 35.824 17.2529L35.849 17.2469L35.874 17.2529L36.024 17.278C36.517 17.365 37.015 17.4519 37.508 17.5519V13.6609C37.514 12.3889 36.754 11.7529 35.257 11.7529" fill="#27292D"/>
<path d="M29.4009 11.7679C28.8178 11.7741 28.2423 11.9015 27.711 12.142L27.649 12.1729L27.593 12.129C27.1386 11.8516 26.6089 11.7229 26.0779 11.7609C25.4714 11.7622 24.8683 11.8525 24.288 12.0289C23.758 12.1909 23.5519 12.4469 23.5519 12.9289V17.3749H25.211V13.2619L25.292 13.2369C25.5257 13.1505 25.7728 13.1062 26.0219 13.1059C26.1225 13.0943 26.2244 13.1061 26.3197 13.1405C26.4149 13.1748 26.5009 13.2308 26.5709 13.3039C26.6409 13.377 26.6931 13.4654 26.7233 13.562C26.7535 13.6586 26.7609 13.761 26.745 13.8609V17.3779H28.379V13.793C28.3809 13.6704 28.364 13.5483 28.3289 13.4309L28.2729 13.3249L28.3849 13.2749C28.6403 13.162 28.9168 13.1047 29.196 13.1069C29.2963 13.0963 29.3977 13.1089 29.4925 13.1436C29.5872 13.1783 29.6728 13.2342 29.7426 13.3071C29.8124 13.38 29.8646 13.4679 29.8951 13.5641C29.9257 13.6602 29.9339 13.7621 29.9189 13.8619V17.379H31.546V13.6999C31.546 12.3999 30.8459 11.7679 29.4009 11.7679Z" fill="#27292D"/>
<path d="M46.859 5.56385C46.5351 5.56256 46.2119 5.53345 45.893 5.47684L45.799 5.45783V3.05784C45.8013 2.94196 45.7865 2.82639 45.755 2.71485L45.705 2.61485L45.811 2.57084C45.836 2.55884 45.861 2.55183 45.892 2.53983L45.911 2.52784L46.023 2.49082C46.037 2.48474 46.0518 2.48071 46.067 2.47883C46.347 2.41388 46.6335 2.38034 46.921 2.37882H46.927C47.943 2.37882 48.062 3.27884 48.062 3.96284C48.056 5.28484 47.401 5.56284 46.862 5.56284M46.856 0.998848H46.812C46.3986 0.959087 45.9814 1.00742 45.5881 1.14066C45.1947 1.27391 44.8341 1.48901 44.53 1.77183C44.3331 2.04139 44.2279 2.36705 44.23 2.70084V5.17585C44.2363 5.28225 44.2192 5.38873 44.18 5.48783L44.124 5.59385H41.112V3.87284H41.106C41.1416 3.50751 41.0985 3.13879 40.9794 2.79157C40.8604 2.44435 40.6682 2.12671 40.4158 1.86015C40.1635 1.59358 39.8569 1.38427 39.5167 1.24638C39.1765 1.10848 38.8107 1.04521 38.444 1.06083H36.922C36.86 1.50383 36.81 1.81584 36.748 2.26084H38.257C39.049 2.26084 39.467 2.93385 39.467 3.96885V5.69984L39.361 5.64384C39.246 5.60868 39.1262 5.59182 39.006 5.59385H36.4C36.35 5.92385 36.288 6.35483 36.219 6.78483H44.231C44.505 6.72883 44.823 6.67883 45.098 6.63483C45.6324 6.84244 46.2016 6.94629 46.775 6.94083C47.5375 6.91208 48.2599 6.59138 48.7927 6.04505C49.3255 5.49872 49.6281 4.76856 49.6377 4.0055C49.6473 3.24244 49.3633 2.50486 48.8445 1.94526C48.3256 1.38566 47.6116 1.04684 46.85 0.998848" fill="#27292D"/>
<path d="M32.805 7.51596H32.88C34.62 7.51596 35.43 6.94198 35.43 5.52698C35.4319 5.27252 35.3805 5.02047 35.279 4.78711C35.1775 4.55375 35.0283 4.34426 34.8409 4.17212C34.6535 3.99998 34.4321 3.86901 34.191 3.78769C33.9498 3.70637 33.6943 3.6765 33.441 3.69998H31.841C31.7401 3.7114 31.638 3.70047 31.5419 3.66797C31.4458 3.63547 31.358 3.58222 31.2848 3.51196C31.2116 3.44171 31.1547 3.35618 31.1183 3.26147C31.0818 3.16677 31.0667 3.0652 31.074 2.96399C31.074 2.65199 31.1919 2.26398 31.9739 2.26398H35.4739C35.5489 1.80898 35.586 1.52196 35.655 1.06396H32.014C30.314 1.06396 29.464 1.77499 29.464 2.96399C29.464 4.15299 30.206 4.74698 31.453 4.74698H33.053C33.1551 4.74559 33.2565 4.76487 33.3509 4.80368C33.4454 4.84249 33.531 4.90003 33.6027 4.97281C33.6744 5.04559 33.7306 5.1321 33.7679 5.22717C33.8052 5.32224 33.8229 5.42388 33.82 5.52597C33.8238 5.64084 33.8022 5.75514 33.7569 5.86075C33.7115 5.96636 33.6435 6.0607 33.5576 6.13705C33.4717 6.21341 33.37 6.26993 33.2598 6.30258C33.1496 6.33523 33.0336 6.34323 32.92 6.32599H32.652L27.52 6.31299H26.585C25.793 6.31299 25.238 5.86397 25.238 4.82297V4.10599C25.238 3.02099 25.668 2.34796 26.585 2.34796H28.106C28.175 1.88696 28.218 1.59398 28.281 1.15698H26.205C25.8357 1.14636 25.4684 1.21454 25.1276 1.35699C24.7867 1.49945 24.4802 1.71292 24.2283 1.98315C23.9764 2.25339 23.785 2.57419 23.6669 2.92419C23.5487 3.2742 23.5064 3.64536 23.5429 4.01297V4.82397C23.5094 5.18278 23.5551 5.54457 23.6767 5.88379C23.7983 6.22301 23.993 6.53136 24.2469 6.78708C24.5008 7.0428 24.8078 7.23966 25.1461 7.36371C25.4845 7.48776 25.8459 7.53597 26.205 7.50497H27.72L30.501 7.51099H32.796L32.805 7.51596Z" fill="#27292D"/>
</svg>
