<svg width="42" height="25" viewBox="0 0 42 25" fill="none" xmlns="http://www.w3.org/2000/svg">
<path fill-rule="evenodd" clip-rule="evenodd" d="M29.201 24.9649L29.844 24.9479L30.48 24.9019L31.103 24.8229L31.721 24.7129L32.321 24.5739L32.915 24.4059L33.496 24.2059L34.065 23.9828L34.62 23.7309L35.159 23.4569L35.681 23.1569L36.191 22.8329L36.68 22.4839L37.151 22.1129L37.606 21.7209L38.04 21.3039L38.457 20.8699L38.849 20.4149L39.22 19.9439L39.569 19.4559L39.893 18.9469L40.193 18.4239L40.467 17.8849L40.72 17.3298L40.943 16.7608L41.143 16.1799L41.312 15.5869L41.45 14.9869L41.559 14.3679L41.639 13.7449L41.686 13.1089L41.702 12.4649L41.686 11.8249L41.639 11.1929L41.559 10.5699L41.45 9.95886L41.312 9.35886L41.143 8.76886L40.943 8.18785L40.72 7.62386L40.467 7.07286L40.193 6.53386L39.893 6.01585L39.569 5.50685L39.22 5.01785L38.849 4.55086L38.457 4.09686L38.04 3.66286L37.606 3.24986L37.151 2.85886L36.68 2.48785L36.191 2.13885L35.681 1.81485L35.159 1.51486L34.62 1.24185L34.065 0.988861L33.496 0.765854L32.915 0.565857L32.321 0.397858L31.721 0.25885L31.103 0.149857L30.48 0.0698547L29.844 0.0228577L29.201 0.00585938L28.56 0.0228577L27.924 0.0698547L27.302 0.149857L26.687 0.25885L26.087 0.397858L25.494 0.565857L24.917 0.765854L24.348 0.988861L23.796 1.24185L23.262 1.51486L22.74 1.81485L22.235 2.13885L21.747 2.48785L21.275 2.85886L20.825 3.24986L20.391 3.66286L19.979 4.09686L19.587 4.55086L19.217 5.01785L18.872 5.50685L18.548 6.01585L18.248 6.53386L17.97 7.07286L17.721 7.62386L17.498 8.18785L17.305 8.76886L17.136 9.35886L16.997 9.95886L16.888 10.5699L16.808 11.1929L16.761 11.8249L16.744 12.4649L16.761 13.1089L16.808 13.7449L16.888 14.3679L16.997 14.9869L17.136 15.5869L17.305 16.1799L17.498 16.7608L17.721 17.3298L17.97 17.8849L18.248 18.4239L18.548 18.9469L18.872 19.4559L19.217 19.9439L19.587 20.4149L19.979 20.8699L20.391 21.3039L20.825 21.7209L21.275 22.1129L21.747 22.4839L22.235 22.8329L22.74 23.1569L23.262 23.4569L23.796 23.7309L24.348 23.9828L24.917 24.2059L25.494 24.4059L26.087 24.5739L26.687 24.7129L27.302 24.8229L27.924 24.9019L28.56 24.9479L29.201 24.9649Z" fill="#FBB231"/>
<path fill-rule="evenodd" clip-rule="evenodd" d="M12.5039 24.9649L13.1429 24.9479L13.779 24.9019L14.403 24.8229L15.0179 24.7129L15.618 24.5739L16.2109 24.4059L16.788 24.2059L17.356 23.9828L17.907 23.7309L18.442 23.4569L18.964 23.1569L19.464 22.8329L19.9529 22.4839L20.424 22.1129L20.874 21.7209L21.308 21.3039L21.7209 20.8699L22.1129 20.4149L22.4829 19.9439L22.8279 19.4559L23.153 18.9469L23.4529 18.4239L23.731 17.8849L23.9789 17.3298L24.2029 16.7608L24.396 16.1799L24.564 15.5869L24.7029 14.9869L24.812 14.3679L24.8919 13.7449L24.938 13.1089L24.955 12.4649L24.938 11.8249L24.8919 11.1929L24.812 10.5699L24.7029 9.95886L24.564 9.35886L24.396 8.76886L24.2029 8.18785L23.9789 7.62386L23.731 7.07286L23.4529 6.53386L23.153 6.01585L22.8279 5.50685L22.4829 5.01785L22.1129 4.55086L21.7209 4.09686L21.308 3.66286L20.874 3.24986L20.424 2.85886L19.9529 2.48785L19.464 2.13885L18.964 1.81485L18.442 1.51486L17.907 1.24185L17.356 0.988861L16.788 0.765854L16.2109 0.565857L15.618 0.397858L15.0179 0.25885L14.403 0.149857L13.779 0.0698547L13.1429 0.0228577L12.5039 0.00585938L11.8589 0.0228577L11.2239 0.0698547L10.601 0.149857L9.98196 0.25885L9.38196 0.397858L8.78796 0.565857L8.20694 0.765854L7.63895 0.988861L7.08295 1.24185L6.54395 1.51486L6.02194 1.81485L5.51196 2.13885L5.02295 2.48785L4.55194 2.85886L4.09695 3.24986L3.66394 3.66286L3.24695 4.09686L2.85495 4.55086L2.48495 5.01785L2.13495 5.50685L1.81094 6.01585L1.51096 6.53386L1.23795 7.07286L0.984955 7.62386L0.761963 8.18785L0.561951 8.76886L0.393951 9.35886L0.254944 9.95886L0.144958 10.5699L0.0649414 11.1929L0.0189514 11.8249L0.00195312 12.4649L0.0189514 13.1089L0.0649414 13.7449L0.144958 14.3679L0.254944 14.9869L0.393951 15.5869L0.561951 16.1799L0.761963 16.7608L0.984955 17.3298L1.23795 17.8849L1.51096 18.4239L1.81094 18.9469L2.13495 19.4559L2.48495 19.9439L2.85495 20.4149L3.24695 20.8699L3.66394 21.3039L4.09695 21.7209L4.55194 22.1129L5.02295 22.4839L5.51196 22.8329L6.02194 23.1569L6.54395 23.4569L7.08295 23.7309L7.63895 23.9828L8.20694 24.2059L8.78796 24.4059L9.38196 24.5739L9.98196 24.7129L10.601 24.8229L11.2239 24.9019L11.8589 24.9479L12.5039 24.9649Z" fill="#EC1C2E"/>
<path fill-rule="evenodd" clip-rule="evenodd" d="M19.392 4.78688H26.022V4.10889H19.964L19.391 4.78688H19.392Z" fill="#FBB231"/>
<path fill-rule="evenodd" clip-rule="evenodd" d="M18.3949 6.29373H26.0189V5.61572H18.7949L18.3949 6.29373Z" fill="#FBB231"/>
<path fill-rule="evenodd" clip-rule="evenodd" d="M17.6559 7.79665H26.0209V7.11865H17.9509L17.6559 7.79665Z" fill="#FBB231"/>
<path fill-rule="evenodd" clip-rule="evenodd" d="M17.147 9.30397H26.022V8.62598H17.358L17.147 9.30397Z" fill="#FBB231"/>
<path fill-rule="evenodd" clip-rule="evenodd" d="M17.442 16.5877H26.042V15.9097H17.231L17.442 16.5877Z" fill="#FBB231"/>
<path fill-rule="evenodd" clip-rule="evenodd" d="M18.077 18.095H26.042V17.417H17.761L18.077 18.095Z" fill="#FBB231"/>
<path fill-rule="evenodd" clip-rule="evenodd" d="M18.969 19.5979H26.042V18.9199H18.542L18.966 19.5979H18.969Z" fill="#FBB231"/>
<path fill-rule="evenodd" clip-rule="evenodd" d="M20.199 21.1039H26.042V20.4219H19.605L20.199 21.1039Z" fill="#FBB231"/>
<path fill-rule="evenodd" clip-rule="evenodd" d="M16.8489 10.8069H26.0219V10.1299H16.9789L16.8489 10.8079V10.8069Z" fill="#FBB231"/>
<path fill-rule="evenodd" clip-rule="evenodd" d="M22.439 15.0838H25.939V14.4058H22.567L22.44 15.0838H22.439Z" fill="#FBB231"/>
<path fill-rule="evenodd" clip-rule="evenodd" d="M22.7169 13.5819H25.9369V12.8999H22.8429L22.7169 13.5819Z" fill="#FBB231"/>
<path fill-rule="evenodd" clip-rule="evenodd" d="M16.6169 12.8999H17.5269V13.5819H16.6599L16.6169 12.8999Z" fill="#FBB231"/>
<path fill-rule="evenodd" clip-rule="evenodd" d="M14.9189 12.0781H14.861L14.8019 12.0701L14.7469 12.0621L14.693 12.0531L14.642 12.0451L14.588 12.0361L14.534 12.0281L14.4739 12.0191L14.416 12.0111H14.3489H14.2729H14.193H14.1039H14.004L13.894 12.0201L13.7719 12.0281L13.688 12.0411L13.6079 12.0541L13.5359 12.0791L13.473 12.1041L13.4139 12.1341L13.36 12.1681L13.317 12.2111L13.279 12.2481L13.254 12.2941L13.2329 12.3401L13.2239 12.3901V12.4411L13.236 12.4961L13.253 12.5501L13.2859 12.6051L13.3289 12.6601L13.413 12.7401L13.5129 12.8031L13.6299 12.8571L13.756 12.9031L13.891 12.9461L14.03 12.9921L14.1689 13.0431L14.304 13.0971L14.4309 13.1681L14.549 13.2561L14.654 13.3621L14.743 13.4921L14.81 13.6521L14.852 13.8421L14.868 14.0701L14.852 14.3351L14.823 14.5351L14.7719 14.7071L14.7039 14.8671L14.62 15.0061L14.52 15.1291L14.4099 15.2291L14.292 15.3221L14.162 15.4021L14.0259 15.4651L13.887 15.5191L13.744 15.5611L13.597 15.5951L13.4539 15.6211L13.3159 15.6331L13.1769 15.6421H13.046H12.864H12.696H12.549H12.4099H12.284L12.171 15.6331L12.071 15.6251L11.9709 15.6131L11.882 15.6041L11.8019 15.5871L11.722 15.5741L11.6509 15.5541L11.5789 15.5371L11.512 15.5111L11.4439 15.4861L11.3719 15.4611L11.5609 14.5311L11.5989 14.5391L11.645 14.5521L11.7039 14.5681L11.7759 14.5861L11.851 14.6031L11.935 14.6201L12.028 14.6411L12.128 14.6581L12.2339 14.6751L12.344 14.6921L12.4569 14.7041L12.575 14.7171H12.696H12.8189H12.9399H13.062L13.184 14.6921L13.284 14.6581L13.3589 14.6121L13.4179 14.5531L13.46 14.4941L13.494 14.4261L13.515 14.3591L13.5309 14.2961L13.5399 14.1741L13.502 14.0691L13.43 13.9851L13.33 13.9141L13.2039 13.8511L13.0569 13.7881L12.8929 13.7291L12.7289 13.6621L12.5609 13.5861L12.4009 13.4971L12.254 13.3881L12.119 13.2571L12.0139 13.0971L11.938 12.9071L11.9 12.6801V12.4111L11.921 12.2471L11.951 12.0911L11.993 11.9481L12.0429 11.8131L12.11 11.6871L12.1859 11.5771L12.275 11.4711L12.3799 11.3791L12.503 11.2991L12.637 11.2311L12.788 11.1681L12.9569 11.1221L13.1469 11.0841L13.353 11.0551L13.58 11.0381H13.8289H13.9839H14.127H14.258H14.3759L14.481 11.0461L14.581 11.0541L14.6649 11.0621L14.741 11.0711L14.813 11.0791L14.8719 11.0921L14.926 11.1011L14.977 11.1091L15.019 11.1171H15.0569L15.0949 11.1251H15.129L14.9139 12.0761L14.9189 12.0781Z" fill="white"/>
<path d="M14.9189 12.0781H14.861L14.8019 12.0701L14.7469 12.0621L14.693 12.0531L14.642 12.0451L14.588 12.0361L14.534 12.0281L14.4739 12.0191L14.416 12.0111H14.3489H14.2729H14.193H14.1039H14.004L13.894 12.0201L13.7719 12.0281L13.688 12.0411L13.6079 12.0541L13.5359 12.0791L13.473 12.1041L13.4139 12.1341L13.36 12.1681L13.317 12.2111L13.279 12.2481L13.254 12.2941L13.2329 12.3401L13.2239 12.3901V12.4411L13.236 12.4961L13.253 12.5501L13.2859 12.6051L13.3289 12.6601L13.413 12.7401L13.5129 12.8031L13.6299 12.8571L13.756 12.9031L13.891 12.9461L14.03 12.9921L14.1689 13.0431L14.304 13.0971L14.4309 13.1681L14.549 13.2561L14.654 13.3621L14.743 13.4921L14.81 13.6521L14.852 13.8421L14.868 14.0701L14.852 14.3351L14.823 14.5351L14.7719 14.7071L14.7039 14.8671L14.62 15.0061L14.52 15.1291L14.4099 15.2291L14.292 15.3221L14.162 15.4021L14.0259 15.4651L13.887 15.5191L13.744 15.5611L13.597 15.5951L13.4539 15.6211L13.3159 15.6331L13.1769 15.6421H13.046H12.864H12.696H12.549H12.4099H12.284L12.171 15.6331L12.071 15.6251L11.9709 15.6131L11.882 15.6041L11.8019 15.5871L11.722 15.5741L11.6509 15.5541L11.5789 15.5371L11.512 15.5111L11.4439 15.4861L11.3719 15.4611L11.5609 14.5311L11.5989 14.5391L11.645 14.5521L11.7039 14.5681L11.7759 14.5861L11.851 14.6031L11.935 14.6201L12.028 14.6411L12.128 14.6581L12.2339 14.6751L12.344 14.6921L12.4569 14.7041L12.575 14.7171H12.696H12.8189H12.9399H13.062L13.184 14.6921L13.284 14.6581L13.3589 14.6121L13.4179 14.5531L13.46 14.4941L13.494 14.4261L13.515 14.3591L13.5309 14.2961L13.5399 14.1741L13.502 14.0691L13.43 13.9851L13.33 13.9141L13.2039 13.8511L13.0569 13.7881L12.8929 13.7291L12.7289 13.6621L12.5609 13.5861L12.4009 13.4971L12.254 13.3881L12.119 13.2571L12.0139 13.0971L11.938 12.9071L11.9 12.6801V12.4111L11.921 12.2471L11.951 12.0911L11.993 11.9481L12.0429 11.8131L12.11 11.6871L12.1859 11.5771L12.275 11.4711L12.3799 11.3791L12.503 11.2991L12.637 11.2311L12.788 11.1681L12.9569 11.1221L13.1469 11.0841L13.353 11.0551L13.58 11.0381H13.8289H13.9839H14.127H14.258H14.3759L14.481 11.0461L14.581 11.0541L14.6649 11.0621L14.741 11.0711L14.813 11.0791L14.8719 11.0921L14.926 11.1011L14.977 11.1091L15.019 11.1171H15.0569L15.0949 11.1251H15.129L14.9139 12.0761" stroke="white" stroke-width="0.216" stroke-miterlimit="2.613"/>
<path fill-rule="evenodd" clip-rule="evenodd" d="M15.9179 10.0879H17.0849L16.9119 11.1069H17.6119L17.4599 12.0579L16.7189 12.0369L16.3189 14.3859V14.4709L16.3399 14.5429L16.3829 14.5979L16.4379 14.6439L16.5139 14.6739L16.5979 14.6989L16.6899 14.7149L16.7899 14.7239H16.8819L16.9659 14.7159L17.0419 14.7029L17.1089 14.6859L17.1639 14.6689L17.2019 14.6569L17.2269 14.6479H17.2349L17.0879 15.4309L17.0579 15.4519L17.0289 15.4689L16.9989 15.4859L16.9699 15.5019L16.9399 15.5149L16.9059 15.5279L16.8679 15.5399L16.8299 15.5529L16.7879 15.5649L16.7449 15.5739L16.6949 15.5819L16.6449 15.5909L16.5899 15.5999L16.5259 15.6079L16.4579 15.6159L16.3859 15.6239H16.0659L15.8979 15.6109L15.7509 15.5939L15.6169 15.5689L15.5029 15.5389L15.4029 15.5009L15.3229 15.4599L15.2519 15.4089L15.1969 15.3539L15.1549 15.2949L15.1249 15.2239L15.1049 15.1519L15.0919 15.0729V14.9839V14.8919L15.1039 14.7919L15.1169 14.6859L15.9169 10.0929L15.9179 10.0879Z" fill="white"/>
<path d="M15.9179 10.0879H17.0849L16.9119 11.1069H17.6119L17.4599 12.0579L16.7189 12.0369L16.3189 14.3859V14.4709L16.3399 14.5429L16.3829 14.5979L16.4379 14.6439L16.5139 14.6739L16.5979 14.6989L16.6899 14.7149L16.7899 14.7239H16.8819L16.9659 14.7159L17.0419 14.7029L17.1089 14.6859L17.1639 14.6689L17.2019 14.6569L17.2269 14.6479H17.2349L17.0879 15.4309L17.0579 15.4519L17.0289 15.4689L16.9989 15.4859L16.9699 15.5019L16.9399 15.5149L16.9059 15.5279L16.8679 15.5399L16.8299 15.5529L16.7879 15.5649L16.7449 15.5739L16.6949 15.5819L16.6449 15.5909L16.5899 15.5999L16.5259 15.6079L16.4579 15.6159L16.3859 15.6239H16.0659L15.8979 15.6109L15.7509 15.5939L15.6169 15.5689L15.5029 15.5389L15.4029 15.5009L15.3229 15.4599L15.2519 15.4089L15.1969 15.3539L15.1549 15.2949L15.1249 15.2239L15.1049 15.1519L15.0919 15.0729V14.9839V14.8919L15.1039 14.7919L15.1169 14.6859L15.9169 10.0929" stroke="white" stroke-width="0.216" stroke-miterlimit="2.613"/>
<path d="M18.5449 13.6446L18.5319 13.7156V13.7916L18.5399 13.8716L18.5569 13.9516L18.5869 14.0316L18.6209 14.1086L18.6669 14.1876L18.7169 14.2586L18.7759 14.3306L18.8389 14.3946L18.9069 14.4576L18.9819 14.5076L19.0579 14.5546L19.1419 14.5916L19.2259 14.6206L19.3109 14.6376L19.4199 14.6546L19.5259 14.6676L19.6359 14.6796L19.7449 14.6886H19.8539H19.9679H20.0769L20.1909 14.6796L20.3039 14.6626L20.4179 14.6416L20.5359 14.6166L20.6499 14.5786L20.7689 14.5326L20.8899 14.4816L21.0079 14.4146L21.1299 14.3426L20.9619 15.3786L20.8939 15.4116L20.8269 15.4456L20.7589 15.4706L20.6959 15.4966L20.6329 15.5176L20.5649 15.5386L20.4979 15.5546L20.4259 15.5676L20.3499 15.5806L20.2659 15.5896L20.1779 15.5976L20.0779 15.6056H19.9679H19.8549H19.7239H19.5849H19.3789L19.1689 15.5846L18.9579 15.5546L18.7479 15.5036L18.5419 15.4406L18.3419 15.3596L18.1519 15.2596L17.9749 15.1376L17.8109 14.9946L17.6679 14.8226L17.5459 14.6286L17.4459 14.4056L17.3749 14.1576L17.3289 13.8756L17.3159 13.5646L17.3369 13.2196L17.3539 13.0846L17.3789 12.9286L17.4129 12.7646L17.4589 12.5866L17.5229 12.4066L17.5979 12.2256L17.6979 12.0406L17.8159 11.8636L17.9499 11.6946L18.1139 11.5346L18.2999 11.3916L18.5099 11.2656L18.7539 11.1596L19.0279 11.0836L19.3279 11.0336L19.6699 11.0156H19.8339L20.0069 11.0326L20.1799 11.0616L20.3529 11.1036L20.5209 11.1676L20.6859 11.2436L20.8379 11.3436L20.9769 11.4616L21.1029 11.6056L21.2089 11.7746L21.2929 11.9676L21.3519 12.1906L21.3859 12.4426V12.7286L21.3559 13.0486L21.2919 13.4026L21.2709 13.6596H18.2019L18.3949 12.8296H20.2389L20.2479 12.7296V12.6296L20.2389 12.5366L20.2229 12.4526L20.1929 12.3726L20.1639 12.3006L20.1209 12.2376L20.0789 12.1786L20.0289 12.1286L19.9739 12.0866L19.9109 12.0486L19.8479 12.0146L19.7809 11.9896L19.7139 11.9726L19.6419 11.9596L19.5659 11.9506H19.4859L19.4099 11.9636L19.3379 11.9806L19.2669 12.0056L19.1949 12.0396L19.1329 12.0776L19.0689 12.1236L19.0149 12.1736L18.9599 12.2326L18.9089 12.2956L18.8629 12.3636L18.8249 12.4356L18.7869 12.5116L18.7579 12.5956L18.7329 12.6796L18.7159 12.7676L18.5479 13.6386" stroke="white" stroke-width="0.216" stroke-miterlimit="2.613"/>
<path fill-rule="evenodd" clip-rule="evenodd" d="M28.585 11.3579L28.531 11.3289L28.477 11.3029L28.417 11.2729L28.354 11.2429L28.29 11.2179L28.22 11.1929L28.1479 11.1679L28.073 11.1429L27.993 11.1219L27.912 11.1049L27.825 11.0879L27.737 11.0749L27.637 11.0659L27.537 11.0579H27.225L27.115 11.0659L27.001 11.0789L26.884 11.0999L26.766 11.1339L26.649 11.1809L26.531 11.2399L26.413 11.3149L26.3 11.4079L26.19 11.5169L26.085 11.6519L25.985 11.8079L25.892 11.9929L25.804 12.2029L25.724 12.4399L25.657 12.7089L25.63 12.8599L25.614 13.0069L25.6049 13.1549V13.2989L25.617 13.4419L25.646 13.5769L25.684 13.7029L25.7299 13.8289L25.793 13.9429L25.868 14.0519L25.957 14.1519L26.057 14.2409L26.17 14.3169L26.3 14.3799L26.443 14.4349L26.603 14.4729L26.658 14.4849L26.722 14.4979L26.798 14.5069L26.882 14.5149L26.974 14.5229H27.174L27.28 14.5149L27.389 14.5019L27.499 14.4809L27.604 14.4519L27.709 14.4189L27.814 14.3719L27.914 14.3179L28.002 14.2509L28.086 14.1749L27.897 15.2989L27.871 15.3199L27.846 15.3449L27.812 15.3749L27.774 15.3989L27.728 15.4329L27.669 15.4629L27.601 15.4929L27.526 15.5179L27.426 15.5479L27.3159 15.5689L27.19 15.5859L27.042 15.6029L26.878 15.6109H26.688H26.474L26.238 15.5989L26.044 15.5779L25.85 15.5359L25.657 15.4729L25.463 15.3889L25.277 15.2889L25.1 15.1619L24.932 15.0149L24.776 14.8469L24.637 14.6569L24.52 14.4469L24.42 14.2109L24.345 13.9539L24.294 13.6719L24.277 13.3719L24.2859 13.0439L24.332 12.6939L24.366 12.5219L24.403 12.3539L24.446 12.1899L24.489 12.0339L24.534 11.8859L24.589 11.7389L24.644 11.5999L24.703 11.4689L24.767 11.3379L24.83 11.2159L24.901 11.0979L24.976 10.9889L25.052 10.8829L25.136 10.7829L25.22 10.6899L25.309 10.6019L25.409 10.5169L25.509 10.4369L25.6089 10.3649L25.714 10.2979L25.827 10.2349L25.94 10.1809L26.058 10.1299L26.18 10.0829L26.311 10.0409L26.44 10.0069L26.575 9.9769L26.719 9.95189L26.861 9.9299L27.013 9.9129L27.165 9.90489L27.325 9.8999L27.461 9.90489L27.59 9.9129L27.716 9.9259L27.8419 9.9429L27.96 9.95889L28.073 9.9839L28.182 10.0049L28.282 10.0299L28.382 10.0549L28.4669 10.0799L28.547 10.1059L28.614 10.1309L28.673 10.1519L28.723 10.1689L28.761 10.1859L28.787 10.1949L28.575 11.3609L28.585 11.3579Z" fill="white"/>
<path d="M28.585 11.3579L28.531 11.3289L28.477 11.3029L28.417 11.2729L28.354 11.2429L28.29 11.2179L28.22 11.1929L28.1479 11.1679L28.073 11.1429L27.993 11.1219L27.912 11.1049L27.825 11.0879L27.737 11.0749L27.637 11.0659L27.537 11.0579H27.225L27.115 11.0659L27.001 11.0789L26.884 11.0999L26.766 11.1339L26.649 11.1809L26.531 11.2399L26.413 11.3149L26.3 11.4079L26.19 11.5169L26.085 11.6519L25.985 11.8079L25.892 11.9929L25.804 12.2029L25.724 12.4399L25.657 12.7089L25.63 12.8599L25.614 13.0069L25.6049 13.1549V13.2989L25.617 13.4419L25.646 13.5769L25.684 13.7029L25.7299 13.8289L25.793 13.9429L25.868 14.0519L25.957 14.1519L26.057 14.2409L26.17 14.3169L26.3 14.3799L26.443 14.4349L26.603 14.4729L26.658 14.4849L26.722 14.4979L26.798 14.5069L26.882 14.5149L26.974 14.5229H27.174L27.28 14.5149L27.389 14.5019L27.499 14.4809L27.604 14.4519L27.709 14.4189L27.814 14.3719L27.914 14.3179L28.002 14.2509L28.086 14.1749L27.897 15.2989L27.871 15.3199L27.846 15.3449L27.812 15.3749L27.774 15.3989L27.728 15.4329L27.669 15.4629L27.601 15.4929L27.526 15.5179L27.426 15.5479L27.3159 15.5689L27.19 15.5859L27.042 15.6029L26.878 15.6109H26.688H26.474L26.238 15.5989L26.044 15.5779L25.85 15.5359L25.657 15.4729L25.463 15.3889L25.277 15.2889L25.1 15.1619L24.932 15.0149L24.776 14.8469L24.637 14.6569L24.52 14.4469L24.42 14.2109L24.345 13.9539L24.294 13.6719L24.277 13.3719L24.2859 13.0439L24.332 12.6939L24.366 12.5219L24.403 12.3539L24.446 12.1899L24.489 12.0339L24.534 11.8859L24.589 11.7389L24.644 11.5999L24.703 11.4689L24.767 11.3379L24.83 11.2159L24.901 11.0979L24.976 10.9889L25.052 10.8829L25.136 10.7829L25.22 10.6899L25.309 10.6019L25.409 10.5169L25.509 10.4369L25.6089 10.3649L25.714 10.2979L25.827 10.2349L25.94 10.1809L26.058 10.1299L26.18 10.0829L26.311 10.0409L26.44 10.0069L26.575 9.9769L26.719 9.95189L26.861 9.9299L27.013 9.9129L27.165 9.90489L27.325 9.8999L27.461 9.90489L27.59 9.9129L27.716 9.9259L27.8419 9.9429L27.96 9.95889L28.073 9.9839L28.182 10.0049L28.282 10.0299L28.382 10.0549L28.4669 10.0799L28.547 10.1059L28.614 10.1309L28.673 10.1519L28.723 10.1689L28.761 10.1859L28.787 10.1949L28.575 11.3609" stroke="white" stroke-width="0.216" stroke-miterlimit="2.613"/>
<path fill-rule="evenodd" clip-rule="evenodd" d="M38.95 15.6146H37.786L37.87 15.1476V15.1056L37.802 15.1906L37.73 15.2656L37.659 15.3326L37.583 15.3926L37.507 15.4476L37.431 15.4926L37.355 15.5306L37.275 15.5686L37.195 15.5986L37.115 15.6196L37.035 15.6406L36.951 15.6526L36.868 15.6656L36.788 15.6736H36.704H36.62L36.401 15.6566L36.201 15.6106L36.016 15.5396L35.847 15.4396L35.696 15.3166L35.561 15.1746L35.443 15.0186L35.343 14.8426L35.26 14.6526L35.192 14.4526L35.146 14.2466L35.112 14.0316L35.1 13.8166V13.5976L35.121 13.3826L35.159 13.1686L35.222 12.9196L35.298 12.6846L35.387 12.4696L35.487 12.2696L35.596 12.0796L35.723 11.9106L35.853 11.7596L35.992 11.6206L36.139 11.4986L36.295 11.3936L36.455 11.3006L36.615 11.2286L36.783 11.1696L36.951 11.1326L37.119 11.1076L37.292 11.0996H37.415L37.533 11.1126L37.643 11.1336L37.743 11.1636L37.843 11.1976L37.928 11.2346L38.012 11.2816L38.088 11.3276L38.155 11.3776L38.218 11.4336L38.273 11.4886L38.324 11.5436L38.366 11.5986L38.404 11.6536L38.438 11.7046L38.463 11.7546L38.763 10.0996H39.907L38.955 15.6056L38.95 15.6146Z" fill="white"/>
<path d="M38.95 15.6146H37.786L37.87 15.1476V15.1056L37.802 15.1906L37.73 15.2656L37.659 15.3326L37.583 15.3926L37.507 15.4476L37.431 15.4926L37.355 15.5306L37.275 15.5686L37.195 15.5986L37.115 15.6196L37.035 15.6406L36.951 15.6526L36.868 15.6656L36.788 15.6736H36.704H36.62L36.401 15.6566L36.201 15.6106L36.016 15.5396L35.847 15.4396L35.696 15.3166L35.561 15.1746L35.443 15.0186L35.343 14.8426L35.26 14.6526L35.192 14.4526L35.146 14.2466L35.112 14.0316L35.1 13.8166V13.5976L35.121 13.3826L35.159 13.1686L35.222 12.9196L35.298 12.6846L35.387 12.4696L35.487 12.2696L35.596 12.0796L35.723 11.9106L35.853 11.7596L35.992 11.6206L36.139 11.4986L36.295 11.3936L36.455 11.3006L36.615 11.2286L36.783 11.1696L36.951 11.1326L37.119 11.1076L37.292 11.0996H37.415L37.533 11.1126L37.643 11.1336L37.743 11.1636L37.843 11.1976L37.928 11.2346L38.012 11.2816L38.088 11.3276L38.155 11.3776L38.218 11.4336L38.273 11.4886L38.324 11.5436L38.366 11.5986L38.404 11.6536L38.438 11.7046L38.463 11.7546L38.763 10.0996H39.907L38.955 15.6056" stroke="white" stroke-width="0.216" stroke-miterlimit="2.613"/>
<path fill-rule="evenodd" clip-rule="evenodd" d="M37.0429 14.5958L37.1609 14.5878L37.2699 14.5628L37.3699 14.5328L37.4699 14.4868L37.5579 14.4368L37.6419 14.3728L37.7219 14.3018L37.7939 14.2248L37.8569 14.1408L37.9159 14.0478L37.9699 13.9478L38.0169 13.8478L38.0589 13.7418L38.0929 13.6328L38.1219 13.5188L38.1429 13.4058L38.1639 13.2878L38.1769 13.1658V13.0508V12.9338L38.1639 12.8248L38.1469 12.7188L38.1179 12.6188L38.0839 12.5188L38.0419 12.4348L37.9909 12.3548L37.9369 12.2868L37.8729 12.2278L37.8009 12.1778L37.7249 12.1438L37.6449 12.1228L37.5569 12.1138L37.4419 12.1228L37.3369 12.1398L37.2369 12.1738L37.1369 12.2158L37.0529 12.2708L36.9689 12.3378L36.8979 12.4098L36.8259 12.4898L36.7629 12.5818L36.7039 12.6818L36.6489 12.7818L36.6029 12.8908L36.5609 13.0038L36.5279 13.1188L36.4939 13.2398L36.4689 13.3618L36.4469 13.5478L36.4559 13.7478L36.4849 13.9538L36.5399 14.1538L36.6239 14.3268L36.7329 14.4658L36.8719 14.5588L37.0399 14.5928L37.0429 14.5958Z" fill="#FBB231"/>
<path fill-rule="evenodd" clip-rule="evenodd" d="M11.191 14.6797L11.022 15.6147H9.96298L9.99298 15.4427L10.015 15.2867L10.031 15.1687L10.048 15.1057L9.98898 15.1727L9.92099 15.2407L9.84097 15.3037L9.75198 15.3627L9.65198 15.4217L9.54697 15.4717L9.43698 15.5227L9.32397 15.5647L9.20099 15.6027L9.07999 15.6327L8.95697 15.6577L8.83096 15.6747L8.70898 15.6837H8.58698L8.46896 15.6707L8.35498 15.6537L8.20798 15.6157L8.07297 15.5737L7.95499 15.5187L7.84998 15.4557L7.75797 15.3887L7.67398 15.3127L7.60599 15.2327L7.54697 15.1487L7.49698 15.0597L7.45398 14.9667L7.42099 14.8747L7.39297 14.7897L7.37598 14.6897L7.36298 14.5897L7.35498 14.4967V14.4047L7.36697 14.2407L7.39297 14.0857L7.43497 13.9387L7.48999 13.7957L7.55698 13.6607L7.63297 13.5387L7.72098 13.4217L7.82098 13.3157L7.92697 13.2157L8.04498 13.1267L8.16696 13.0467L8.29297 12.9787L8.42798 12.9207L8.56699 12.8737L8.70996 12.8357L8.85797 12.8107H8.86597H8.88696H8.91696H8.96298L9.01398 12.8027H9.07297L9.13599 12.7947L9.20798 12.7867L9.27896 12.7787L9.35098 12.7707H9.42697L9.49399 12.7627H9.56198H9.62396H9.68399H9.82697H9.92697H10.019H10.112H10.188H10.247H10.288H10.301L10.31 12.7337L10.335 12.6577L10.356 12.5687L10.365 12.4887L10.348 12.3967L10.31 12.3117L10.259 12.2367L10.191 12.1737L10.111 12.1197L10.023 12.0807L9.92297 12.0557L9.81396 12.0477H9.69598H9.56897H9.43896H9.30496L9.16599 12.0567L9.03098 12.0687L8.89697 12.0817L8.76697 12.0987L8.63998 12.1157L8.51797 12.1367L8.40897 12.1577L8.30899 12.1787L8.21597 12.2047L8.13998 12.2297L8.08197 12.2597L8.03497 12.2847L8.33496 11.2707L8.42798 11.2327L8.51999 11.1987L8.61996 11.1697L8.71997 11.1477L8.81998 11.1267L8.92899 11.1107L9.03796 11.0937L9.15198 11.0847L9.26999 11.0767H9.39197H9.51797H9.91797H10.066H10.214L10.331 11.0847L10.458 11.1057L10.588 11.1357L10.723 11.1737L10.854 11.2247L10.98 11.2837L11.106 11.3557L11.225 11.4357L11.325 11.5287L11.419 11.6287L11.504 11.7417L11.566 11.8677L11.609 12.0027L11.634 12.1457V12.3057L11.609 12.4737L11.184 14.6967L11.191 14.6797Z" fill="white"/>
<path d="M11.191 14.6797L11.022 15.6147H9.96298L9.99298 15.4427L10.015 15.2867L10.031 15.1687L10.048 15.1057L9.98898 15.1727L9.92099 15.2407L9.84097 15.3037L9.75198 15.3627L9.65198 15.4217L9.54697 15.4717L9.43698 15.5227L9.32397 15.5647L9.20099 15.6027L9.07999 15.6327L8.95697 15.6577L8.83096 15.6747L8.70898 15.6837H8.58698L8.46896 15.6707L8.35498 15.6537L8.20798 15.6157L8.07297 15.5737L7.95499 15.5187L7.84998 15.4557L7.75797 15.3887L7.67398 15.3127L7.60599 15.2327L7.54697 15.1487L7.49698 15.0597L7.45398 14.9667L7.42099 14.8747L7.39297 14.7897L7.37598 14.6897L7.36298 14.5897L7.35498 14.4967V14.4047L7.36697 14.2407L7.39297 14.0857L7.43497 13.9387L7.48999 13.7957L7.55698 13.6607L7.63297 13.5387L7.72098 13.4217L7.82098 13.3157L7.92697 13.2157L8.04498 13.1267L8.16696 13.0467L8.29297 12.9787L8.42798 12.9207L8.56699 12.8737L8.70996 12.8357L8.85797 12.8107H8.86597H8.88696H8.91696H8.96298L9.01398 12.8027H9.07297L9.13599 12.7947L9.20798 12.7867L9.27896 12.7787L9.35098 12.7707H9.42697L9.49399 12.7627H9.56198H9.62396H9.68399H9.82697H9.92697H10.019H10.112H10.188H10.247H10.288H10.301L10.31 12.7337L10.335 12.6577L10.356 12.5687L10.365 12.4887L10.348 12.3967L10.31 12.3117L10.259 12.2367L10.191 12.1737L10.111 12.1197L10.023 12.0807L9.92297 12.0557L9.81396 12.0477H9.69598H9.56897H9.43896H9.30496L9.16599 12.0567L9.03098 12.0687L8.89697 12.0817L8.76697 12.0987L8.63998 12.1157L8.51797 12.1367L8.40897 12.1577L8.30899 12.1787L8.21597 12.2047L8.13998 12.2297L8.08197 12.2597L8.03497 12.2847L8.33496 11.2707L8.42798 11.2327L8.51999 11.1987L8.61996 11.1697L8.71997 11.1477L8.81998 11.1267L8.92899 11.1107L9.03796 11.0937L9.15198 11.0847L9.26999 11.0767H9.39197H9.51797H9.91797H10.066H10.214L10.331 11.0847L10.458 11.1057L10.588 11.1357L10.723 11.1737L10.854 11.2247L10.98 11.2837L11.106 11.3557L11.225 11.4357L11.325 11.5287L11.419 11.6287L11.504 11.7417L11.566 11.8677L11.609 12.0027L11.634 12.1457V12.3057L11.609 12.4737L11.184 14.6967" stroke="white" stroke-width="0.216" stroke-miterlimit="2.613"/>
<path fill-rule="evenodd" clip-rule="evenodd" d="M10.176 13.5808V13.5598L10.159 13.5388L10.134 13.5258L10.092 13.5178L10.045 13.5098H9.991H9.86401H9.797L9.72601 13.5178L9.65799 13.5258L9.59 13.5348L9.52701 13.5428L9.46802 13.5548L9.418 13.5678L9.371 13.5798L9.34201 13.5878L9.30801 13.6008L9.26199 13.6178L9.215 13.6388L9.16101 13.6638L9.10602 13.6938L9.047 13.7228L8.992 13.7568L8.93301 13.7988L8.87799 13.8408L8.827 13.8918L8.78101 13.9428L8.73901 13.9968L8.70999 14.0568L8.685 14.1238L8.672 14.1908V14.3338L8.69202 14.4468L8.73502 14.5318L8.79001 14.5948L8.853 14.6368L8.92502 14.6618L8.992 14.6748H9.05899H9.185L9.29901 14.6618L9.40799 14.6448L9.508 14.6198L9.591 14.5898L9.67099 14.5528L9.742 14.5148L9.806 14.4688L9.86099 14.4268L9.91101 14.3768L9.953 14.3308L9.987 14.2798L10.016 14.2288L10.043 14.1788L10.064 14.1318L10.076 14.0858L10.11 13.9638L10.139 13.8248L10.164 13.6908L10.185 13.5808H10.176Z" fill="#EC1C2E"/>
<path fill-rule="evenodd" clip-rule="evenodd" d="M2.33099 15.6149H1.18701L2.14301 10.0879H4.134L4.32401 13.3669L5.70099 10.0879H7.78L6.80301 15.6149H5.65799L6.38199 11.4849H6.336L4.62201 15.6149H3.33002L3.32101 15.4429L3.29102 14.9839L3.25299 14.3319L3.20999 13.5819L3.168 12.8289L3.13 12.1689L3.10101 11.6889L3.09201 11.4889H3.02899L2.32901 15.6189L2.33099 15.6149Z" fill="white"/>
<path d="M2.33099 15.6149H1.18701L2.14301 10.0879H4.134L4.32401 13.3669L5.70099 10.0879H7.78L6.80301 15.6149H5.65799L6.38199 11.4849H6.336L4.62201 15.6149H3.33002L3.32101 15.4429L3.29102 14.9839L3.25299 14.3319L3.20999 13.5819L3.168 12.8289L3.13 12.1689L3.10101 11.6889L3.09201 11.4889H3.02899L2.32901 15.6189" stroke="white" stroke-width="0.216" stroke-miterlimit="2.613"/>
<path fill-rule="evenodd" clip-rule="evenodd" d="M32.0849 14.6798L31.9119 15.6148H30.8549L30.8629 15.4428V15.2918V15.1788L30.8709 15.1288L30.8169 15.1918L30.7529 15.2548L30.6779 15.3138L30.5929 15.3738L30.5049 15.4278L30.4049 15.4778L30.2989 15.5288L30.1939 15.5708L30.0799 15.6038L29.9619 15.6378L29.8449 15.6598L29.7269 15.6768L29.6039 15.6858H29.4869L29.3729 15.6728L29.2589 15.6558L29.1079 15.6178L28.9739 15.5758L28.8549 15.5208L28.7449 15.4578L28.6529 15.3908L28.5729 15.3148L28.5059 15.2348L28.4479 15.1508L28.3969 15.0618L28.3589 14.9688L28.3249 14.8768L28.3039 14.7838L28.2859 14.6838L28.2739 14.5838L28.2649 14.4908V14.3988L28.2739 14.2348L28.2989 14.0798L28.3369 13.9328L28.3919 13.7898L28.4549 13.6548L28.5349 13.5328L28.6229 13.4158L28.7229 13.3098L28.8329 13.2098L28.9459 13.1208L29.0679 13.0408L29.1989 12.9728L29.3289 12.9148L29.4679 12.8678L29.6069 12.8298L29.7499 12.8048H29.7589H29.7789H29.8089H29.8509L29.9059 12.7968H29.9639L30.0279 12.7888L30.0949 12.7808L30.1669 12.7728L30.2429 12.7648H30.3139L30.3849 12.7568H30.4519H30.5109H30.5699H30.7169H30.8169H30.9169H31.0099H31.0899H31.1569H31.1949H31.2119L31.2209 12.7278L31.2329 12.6518L31.2449 12.5628L31.2529 12.4828L31.2369 12.3908L31.2039 12.3058L31.1489 12.2308L31.0849 12.1678L31.0099 12.1138L30.9219 12.0748L30.8289 12.0498L30.7289 12.0418H30.6109H30.4849H30.3539H30.2189L30.0809 12.0508L29.9459 12.0628L29.8109 12.0758L29.6799 12.0928L29.5539 12.1098L29.4329 12.1308L29.3229 12.1518L29.2229 12.1728L29.1299 12.1988L29.0549 12.2238L28.9949 12.2538L28.9489 12.2788L29.2439 11.2648L29.3359 11.2268L29.4359 11.1928L29.5359 11.1638L29.6359 11.1418L29.7419 11.1208L29.8479 11.1048L29.9569 11.0878L30.0719 11.0788L30.1889 11.0708H30.3109H30.4329H30.8329H30.9759H31.1189L31.2369 11.0788L31.3629 11.0998L31.4929 11.1298L31.6279 11.1678L31.7589 11.2188L31.8889 11.2778L32.0149 11.3498L32.1329 11.4298L32.2389 11.5228L32.3389 11.6228L32.4229 11.7358L32.4869 11.8618L32.5329 11.9968L32.5629 12.1398V12.2998L32.5419 12.4678L32.1009 14.6908L32.0849 14.6798Z" fill="white"/>
<path fill-rule="evenodd" clip-rule="evenodd" d="M31.9109 15.6448L31.9359 15.6198L32.1089 14.6848L32.0579 14.6768L31.8849 15.6118L31.9109 15.5858V15.6448H31.9309V15.6237L31.9059 15.6488L31.9109 15.6448Z" fill="white"/>
<path fill-rule="evenodd" clip-rule="evenodd" d="M30.83 15.6149L30.8549 15.6449H31.9139V15.5859H30.8569L30.882 15.6149H30.83L30.8309 15.6449H30.86L30.835 15.6149H30.83Z" fill="white"/>
<path fill-rule="evenodd" clip-rule="evenodd" d="M30.897 15.1429L30.859 15.1099L30.842 15.1779V15.2909V15.4419L30.834 15.6149H30.885L30.893 15.4419L30.902 15.2909V15.1779V15.1429L30.864 15.1099L30.906 15.1429H30.897Z" fill="white"/>
<path fill-rule="evenodd" clip-rule="evenodd" d="M29.2589 15.6828L29.3769 15.6998L29.4909 15.7118H29.6079L29.7309 15.7028L29.8529 15.6858L29.9709 15.6648L30.0889 15.6318L30.2059 15.5978L30.3119 15.5558L30.4209 15.5058L30.5209 15.4558L30.6089 15.3968L30.6979 15.3368L30.7729 15.2788L30.8409 15.2108L30.8959 15.1468L30.8539 15.1138L30.7989 15.1768L30.7399 15.2358L30.6639 15.2948L30.5839 15.3538L30.4949 15.4038L30.3949 15.4548L30.2949 15.5048L30.1899 15.5468L30.0809 15.5808L29.9629 15.6148L29.8449 15.6358L29.7319 15.6518L29.6089 15.6608H29.4919L29.3779 15.6478L29.2689 15.6318L29.2599 15.6818L29.2589 15.6828Z" fill="white"/>
<path fill-rule="evenodd" clip-rule="evenodd" d="M28.24 14.4058V14.4978L28.249 14.5908L28.262 14.6908L28.279 14.7908L28.3 14.8838L28.334 14.9838L28.372 15.0838L28.427 15.1728L28.486 15.2618L28.554 15.3418L28.638 15.4218L28.738 15.4888L28.847 15.5568L28.97 15.6108L29.108 15.6538L29.26 15.6918L29.269 15.6418L29.117 15.6038L28.987 15.5618L28.873 15.5078L28.763 15.4478L28.675 15.3808L28.599 15.3088L28.532 15.2288L28.473 15.1488L28.427 15.0608L28.389 14.9718L28.355 14.8838L28.334 14.7908L28.317 14.6908L28.304 14.5978L28.295 14.5048V14.4128H28.236L28.24 14.4058Z" fill="white"/>
<path fill-rule="evenodd" clip-rule="evenodd" d="M29.7509 12.793L29.6039 12.818L29.4609 12.856L29.3219 12.902L29.1879 12.961L29.0569 13.028L28.9309 13.112L28.8169 13.201L28.7079 13.301L28.6079 13.406L28.5189 13.524L28.4349 13.65L28.3719 13.789L28.3179 13.932L28.2799 14.083L28.2549 14.243L28.2429 14.407H28.3019V14.243L28.3269 14.092L28.3649 13.949L28.4199 13.806L28.4829 13.675L28.5589 13.557L28.6479 13.439L28.7399 13.339L28.8489 13.246L28.9629 13.157L29.0799 13.082L29.2119 13.014L29.3369 12.956L29.4759 12.91L29.6109 12.872L29.7499 12.847V12.793H29.7509Z" fill="white"/>
<path fill-rule="evenodd" clip-rule="evenodd" d="M30.619 12.7017H30.577L30.518 12.7107H30.459H30.392L30.321 12.7187H30.25L30.174 12.7267L30.102 12.7347L30.035 12.7437L29.971 12.7517H29.913L29.858 12.7607H29.816H29.782H29.765H29.756V12.8117H29.765H29.79H29.815H29.857L29.912 12.8037H29.97L30.034 12.7957L30.101 12.7867L30.173 12.7787L30.249 12.7707H30.32L30.391 12.7617H30.458H30.517H30.622V12.7027L30.619 12.7017Z" fill="white"/>
<path fill-rule="evenodd" clip-rule="evenodd" d="M31.187 12.748L31.212 12.727H31.195H31.157H31.09L31.0099 12.719H30.821L30.7209 12.71H30.621V12.769H30.821L30.921 12.777H31.094H31.1609H31.199H31.216H31.237V12.752L31.186 12.743L31.187 12.748Z" fill="white"/>
<path fill-rule="evenodd" clip-rule="evenodd" d="M31.229 12.478V12.558L31.215 12.643L31.203 12.719L31.1949 12.748L31.246 12.757L31.254 12.727L31.267 12.651L31.279 12.559L31.292 12.479H31.238L31.229 12.478Z" fill="white"/>
<path fill-rule="evenodd" clip-rule="evenodd" d="M30.7279 12.0621H30.8279L30.9159 12.0871L30.9999 12.1251L31.0719 12.1761L31.1299 12.2351L31.1809 12.3071L31.2149 12.3831L31.2319 12.4721H31.2819L31.2649 12.3721L31.2319 12.2791L31.1729 12.1991L31.1059 12.1311L31.0259 12.0731L30.9329 12.0351L30.8329 12.0101L30.7279 11.9971V12.0511V12.0621Z" fill="white"/>
<path fill-rule="evenodd" clip-rule="evenodd" d="M28.9219 12.2641L28.9639 12.2891L29.0059 12.2681L29.0609 12.2381L29.1329 12.2131L29.2249 12.1881L29.3249 12.1671L29.4339 12.1451L29.5559 12.1241L29.6779 12.1081L29.8089 12.0901L29.9439 12.0771L30.0789 12.0651L30.2169 12.0571H30.6089H30.7269V12.0061H30.6089L30.4829 11.9971H30.3519L30.2169 12.0061L30.0789 12.0141L29.9419 12.0291L29.8069 12.0421L29.6759 12.0591L29.5459 12.0751L29.4239 12.0971L29.3149 12.1181L29.2149 12.1391L29.1219 12.1641L29.0419 12.1901L28.9789 12.2191L28.9289 12.2491L28.9709 12.2741L28.9199 12.2661L28.9219 12.2641Z" fill="white"/>
<path fill-rule="evenodd" clip-rule="evenodd" d="M29.234 11.2276L29.216 11.2486L28.922 12.2636L28.973 12.2716L29.268 11.2566L29.251 11.2786L29.235 11.2276H29.222V11.2446L29.24 11.2236L29.234 11.2276Z" fill="white"/>
<path fill-rule="evenodd" clip-rule="evenodd" d="M31.1069 11.0339L30.9639 11.0259H30.8209H30.4209L30.2989 11.0349H30.1769L30.0599 11.0439L29.9449 11.0509L29.8319 11.0679L29.7319 11.0849L29.6269 11.1059L29.5269 11.1269L29.4269 11.1559L29.3269 11.1899L29.2339 11.2279L29.2499 11.2789L29.3429 11.2409L29.4429 11.2079L29.5359 11.1779L29.6359 11.1569L29.7419 11.1359L29.8419 11.1189L29.9469 11.1019L30.0619 11.0939L30.1789 11.0849H30.3009H30.8189H30.9619H31.1049V11.0349L31.1069 11.0339Z" fill="white"/>
<path fill-rule="evenodd" clip-rule="evenodd" d="M32.5509 12.4617L32.5719 12.2887V12.1287L32.5429 11.9807L32.4959 11.8417L32.4289 11.7117L32.3439 11.5937L32.2439 11.4887L32.1439 11.3957L32.0219 11.3157L31.8959 11.2407L31.7609 11.1817L31.6299 11.1307L31.4919 11.0937L31.3609 11.0637L31.2309 11.0427L31.1129 11.0337V11.0837L31.2309 11.0927L31.3529 11.1137L31.4829 11.1427L31.6129 11.1807L31.7439 11.2307L31.8699 11.2897L31.9959 11.3567L32.1089 11.4367L32.2149 11.5287L32.3069 11.6287L32.3909 11.7377L32.4499 11.8607L32.4969 11.9907L32.5269 12.1297V12.2897L32.5059 12.4547L32.5569 12.4627L32.5509 12.4617Z" fill="white"/>
<path fill-rule="evenodd" clip-rule="evenodd" d="M32.109 14.6851L32.551 12.4631L32.5 12.4551L32.058 14.6781L32.109 14.6861V14.6851Z" fill="white"/>
<path fill-rule="evenodd" clip-rule="evenodd" d="M31.0649 13.5808L31.0569 13.5558L31.041 13.5348L31.011 13.5218L30.969 13.5098H30.9229H30.868H30.805H30.7419L30.675 13.5188L30.6079 13.5268L30.541 13.5358L30.477 13.5438L30.4149 13.5568L30.3589 13.5648L30.304 13.5778L30.262 13.5858H30.2329L30.1989 13.5988L30.157 13.6118L30.11 13.6288L30.055 13.6538L30.0049 13.6798L29.946 13.7098L29.892 13.7468L29.8369 13.7848L29.782 13.8308L29.736 13.8768L29.6899 13.9318L29.6519 13.9908L29.6219 14.0538L29.597 14.1218L29.585 14.1928V14.3358L29.6049 14.4488L29.64 14.5338L29.6899 14.5968L29.753 14.6388L29.825 14.6638L29.896 14.6768H29.9669H30.093L30.21 14.6638L30.3199 14.6428L30.42 14.6138L30.512 14.5798L30.5919 14.5418L30.668 14.4988L30.735 14.4488L30.795 14.4028L30.8449 14.3488L30.892 14.2978L30.93 14.2428L30.959 14.1928L30.981 14.1418L30.998 14.0918L31.0099 14.0458L31.0269 13.9278L31.049 13.8058L31.0649 13.6878L31.073 13.5818L31.0649 13.5808Z" fill="#FBB231"/>
<path fill-rule="evenodd" clip-rule="evenodd" d="M39.7369 15.0378L39.7469 14.9378L39.7789 14.8238L39.838 14.7238L39.9099 14.6358L39.9989 14.5648L40.0989 14.5138L40.2079 14.4798L40.325 14.4678L40.4429 14.4798L40.5519 14.5138L40.6519 14.5648L40.7409 14.6358L40.812 14.7238L40.8709 14.8238L40.9039 14.9378L40.9129 15.0378H40.7859V14.9618L40.7599 14.8688L40.7179 14.7848L40.6629 14.7128L40.5959 14.6538L40.5159 14.6118L40.4229 14.5828L40.3229 14.5738L40.2229 14.5828L40.131 14.6118L40.0509 14.6538L39.9829 14.7128L39.929 14.7848L39.8869 14.8688L39.8619 14.9618L39.8529 15.0378H39.7369Z" fill="white"/>
<path fill-rule="evenodd" clip-rule="evenodd" d="M40.1169 15.039V14.791H40.348H40.399L40.4449 14.799L40.4779 14.812L40.5079 14.829L40.529 14.854L40.546 14.879L40.554 14.908V14.938V14.976L40.546 15.006L40.5339 15.031L40.5249 15.04H40.348H40.365H40.395L40.42 15.032L40.4409 15.023L40.4579 15.011L40.4669 14.998L40.4749 14.978V14.948V14.927L40.4669 14.91L40.455 14.902L40.442 14.894H40.421H40.3999H40.227V15.058L40.1169 15.039Z" fill="white"/>
<path fill-rule="evenodd" clip-rule="evenodd" d="M39.7369 15.0391V15.0641L39.7499 15.1861L39.7819 15.2991L39.8409 15.3991L39.9129 15.4831L40.0019 15.5541L40.1019 15.6101L40.2109 15.6431L40.3279 15.6561L40.4459 15.6431L40.5549 15.6101L40.6549 15.5541L40.7439 15.4831L40.8149 15.3991L40.8739 15.2991L40.9069 15.1861L40.9189 15.0641V15.0391H40.7919V15.0641L40.7839 15.1641L40.7579 15.2571L40.7159 15.3371L40.6609 15.4081L40.5939 15.4681L40.5139 15.5141L40.4209 15.5441L40.3209 15.5521L40.2209 15.5441L40.1289 15.5141L40.0489 15.4681L39.9809 15.4081L39.9269 15.3371L39.8849 15.2571L39.8599 15.1641L39.8509 15.0641V15.0391H39.7369Z" fill="white"/>
<path fill-rule="evenodd" clip-rule="evenodd" d="M40.1169 15.0391V15.2951H40.223V15.0851H40.3229L40.4489 15.2951H40.5339L40.408 15.0851H40.437L40.4659 15.0761L40.4909 15.0681L40.512 15.0511L40.52 15.0391H40.343H40.322H40.222H40.1169Z" fill="white"/>
<path d="M40.2219 15.2957H40.1159V14.7857H40.3469H40.3989L40.4449 14.7937L40.4779 14.8067L40.5069 14.8237L40.5289 14.8487L40.5459 14.8747L40.5539 14.9037V14.9337V14.9717L40.5459 15.0007L40.5329 15.0267L40.5159 15.0477L40.4949 15.0647L40.4689 15.0727L40.4399 15.0817H40.4109L40.5369 15.2927H40.4519L40.3259 15.0817H40.2259V15.2927M40.3259 15.0397L40.3639 15.0307H40.3939L40.4189 15.0227L40.4399 15.0147L40.4569 15.0017L40.4649 14.9887L40.4729 14.9687V14.9387V14.9177L40.4639 14.9007L40.4519 14.8927L40.4389 14.8837H40.4169H40.3959H40.2239V15.0447H40.3239M39.7329 15.0637L39.7459 14.9407L39.7779 14.8267L39.8369 14.7267L39.9089 14.6387L39.9979 14.5677L40.0979 14.5167L40.2069 14.4827L40.3249 14.4707L40.4429 14.4827L40.5519 14.5167L40.6519 14.5677L40.7409 14.6387L40.8129 14.7267L40.8719 14.8267L40.9049 14.9407L40.9169 15.0637L40.9049 15.1857L40.8719 15.2987L40.8129 15.3987L40.7409 15.4827L40.6519 15.5537L40.5519 15.6087L40.4429 15.6417L40.3249 15.6547L40.2069 15.6417L40.0979 15.6087L39.9979 15.5537L39.9089 15.4827L39.8369 15.3987L39.7779 15.2987L39.7459 15.1857L39.7329 15.0637ZM40.3239 15.5537L40.4239 15.5457L40.5169 15.5157L40.5969 15.4707L40.6639 15.4107L40.7189 15.3407L40.7609 15.2607L40.7869 15.1677L40.7949 15.0677L40.7869 14.9677L40.7609 14.8747L40.7189 14.7907L40.6639 14.7187L40.5969 14.6597L40.5169 14.6177L40.4239 14.5877L40.3239 14.5797L40.2239 14.5877L40.1309 14.6177L40.0509 14.6597L39.9829 14.7187L39.9289 14.7907L39.8869 14.8747L39.8619 14.9677L39.8539 15.0677L39.8619 15.1677L39.8869 15.2607L39.9289 15.3407L39.9829 15.4107L40.0509 15.4707L40.1309 15.5157L40.2239 15.5457L40.3239 15.5537Z" stroke="white" stroke-width="0.216" stroke-miterlimit="2.613"/>
<path fill-rule="evenodd" clip-rule="evenodd" d="M32.3999 15.6147H33.5879L34.0129 13.2147L34.0299 13.1227L34.0559 13.0297L34.0809 12.9367L34.1149 12.8437L34.1569 12.7517L34.2069 12.6627L34.2619 12.5787L34.3289 12.4987L34.4049 12.4277L34.4889 12.3597L34.5889 12.2957L34.6979 12.2457L34.8199 12.2047L34.9549 12.1707L35.1019 12.1457L35.2659 12.1367H35.3709L35.5609 11.0557L35.4429 11.0637L35.3299 11.0767L35.2249 11.0977L35.1249 11.1267L35.0329 11.1607L34.9449 11.2037L34.8599 11.2497L34.7799 11.2997L34.7049 11.3597L34.6329 11.4187L34.5659 11.4867L34.4989 11.5537L34.4349 11.6257L34.3719 11.7057L34.3089 11.7817L34.2499 11.8667L34.3759 11.1047H33.1929L32.4059 15.6127L32.3999 15.6147Z" fill="white"/>
<path d="M32.3999 15.6147H33.5879L34.0129 13.2147L34.0299 13.1227L34.0559 13.0297L34.0809 12.9367L34.1149 12.8437L34.1569 12.7517L34.2069 12.6627L34.2619 12.5787L34.3289 12.4987L34.4049 12.4277L34.4889 12.3597L34.5889 12.2957L34.6979 12.2457L34.8199 12.2047L34.9549 12.1707L35.1019 12.1457L35.2659 12.1367H35.3709L35.5609 11.0557L35.4429 11.0637L35.3299 11.0767L35.2249 11.0977L35.1249 11.1267L35.0329 11.1607L34.9449 11.2037L34.8599 11.2497L34.7799 11.2997L34.7049 11.3597L34.6329 11.4187L34.5659 11.4867L34.4989 11.5537L34.4349 11.6257L34.3719 11.7057L34.3089 11.7817L34.2499 11.8667L34.3759 11.1047H33.1929L32.4059 15.6127" stroke="white" stroke-width="0.216" stroke-miterlimit="2.613"/>
<path fill-rule="evenodd" clip-rule="evenodd" d="M21.2519 15.6146H22.4599L22.8599 13.2146L22.8769 13.1226L22.8979 13.0336L22.9189 12.9456L22.9489 12.8616L22.9819 12.7776L23.0249 12.6976L23.0749 12.6216L23.1339 12.5496L23.2009 12.4856L23.2769 12.4236L23.3699 12.3726L23.4699 12.3266L23.5879 12.2886L23.7189 12.2556L23.8619 12.2336L24.0259 12.2216H24.0389H24.0559H24.0769H24.0979H24.1189H24.1359H24.1479V12.2046L24.1599 12.1536L24.1769 12.0776L24.1979 11.9846L24.2269 11.8756L24.2569 11.7576L24.2949 11.6396L24.3319 11.5216L24.3659 11.4416L24.4079 11.3616L24.4499 11.2826L24.4919 11.2116L24.5299 11.1486L24.5589 11.0976L24.5799 11.0686L24.5879 11.0566H24.5709H24.5499H24.5199H24.5019H24.4679H24.4379H24.4079L24.2769 11.0646L24.1599 11.0776L24.0499 11.0986L23.9499 11.1246L23.8499 11.1576L23.7609 11.2006L23.6809 11.2416L23.6049 11.2916L23.5339 11.3466L23.4659 11.4096L23.4029 11.4726L23.3399 11.5436L23.2769 11.6156L23.2179 11.6956L23.1549 11.7786L23.0909 11.8636L23.2419 11.1016H22.0339L21.2469 15.6096L21.2519 15.6146Z" fill="white"/>
<path d="M21.2519 15.6146H22.4599L22.8599 13.2146L22.8769 13.1226L22.8979 13.0336L22.9189 12.9456L22.9489 12.8616L22.9819 12.7776L23.0249 12.6976L23.0749 12.6216L23.1339 12.5496L23.2009 12.4856L23.2769 12.4236L23.3699 12.3726L23.4699 12.3266L23.5879 12.2886L23.7189 12.2556L23.8619 12.2336L24.0259 12.2216H24.0389H24.0559H24.0769H24.0979H24.1189H24.1359H24.1479V12.2046L24.1599 12.1536L24.1769 12.0776L24.1979 11.9846L24.2269 11.8756L24.2569 11.7576L24.2949 11.6396L24.3319 11.5216L24.3659 11.4416L24.4079 11.3616L24.4499 11.2826L24.4919 11.2116L24.5299 11.1486L24.5589 11.0976L24.5799 11.0686L24.5879 11.0566H24.5709H24.5499H24.5199H24.5019H24.4679H24.4379H24.4079L24.2769 11.0646L24.1599 11.0776L24.0499 11.0986L23.9499 11.1246L23.8499 11.1576L23.7609 11.2006L23.6809 11.2416L23.6049 11.2916L23.5339 11.3466L23.4659 11.4096L23.4029 11.4726L23.3399 11.5436L23.2769 11.6156L23.2179 11.6956L23.1549 11.7786L23.0909 11.8636L23.2419 11.1016H22.0339L21.2469 15.6096" stroke="white" stroke-width="0.216" stroke-miterlimit="2.613"/>
<path fill-rule="evenodd" clip-rule="evenodd" d="M39.75 20.0428V20.0257L39.782 19.9167L39.841 19.8167L39.912 19.7327L40.001 19.6658L40.101 19.6147L40.21 19.5858L40.327 19.5728L40.445 19.5858L40.554 19.6147L40.654 19.6658L40.743 19.7327L40.814 19.8167L40.873 19.9167L40.906 20.0257V20.0428H40.784L40.758 19.9547L40.716 19.8748L40.661 19.8027L40.594 19.7437L40.514 19.6967L40.421 19.6678L40.321 19.6588L40.221 19.6678L40.129 19.6967L40.049 19.7437L39.981 19.8027L39.927 19.8748L39.885 19.9547L39.859 20.0428H39.75Z" fill="#FBB231"/>
<path fill-rule="evenodd" clip-rule="evenodd" d="M40.1169 20.044V19.897H40.399L40.4449 19.905L40.4779 19.913L40.5079 19.93L40.529 19.952L40.546 19.977L40.554 20.006V20.044H40.4699V20.023V20.002L40.4619 19.985L40.45 19.977L40.437 19.968H40.416H40.395H40.222V20.052L40.1169 20.044Z" fill="#FBB231"/>
<path fill-rule="evenodd" clip-rule="evenodd" d="M39.7339 20.1359L39.7469 20.0439H39.8689L39.8599 20.1329L39.7339 20.1359Z" fill="#FBB231"/>
<path fill-rule="evenodd" clip-rule="evenodd" d="M40.1169 20.1359V20.0439H40.223V20.1279H40.3229L40.361 20.1199H40.391L40.416 20.1109L40.437 20.103L40.4539 20.0909L40.463 20.0779L40.4709 20.058V20.049H40.555V20.0779L40.5469 20.103L40.5349 20.1239L40.5179 20.14L40.1169 20.1359Z" fill="#FBB231"/>
<path fill-rule="evenodd" clip-rule="evenodd" d="M40.795 20.1359L40.787 20.0469H40.909L40.921 20.1389L40.795 20.1359Z" fill="#FBB231"/>
<path fill-rule="evenodd" clip-rule="evenodd" d="M39.7339 20.1357V20.1487L39.7469 20.2707L39.7789 20.3848L39.8379 20.4847L39.9099 20.5727L39.9989 20.6447L40.0989 20.6947L40.2079 20.7287L40.3249 20.7407L40.4429 20.7287L40.5519 20.6947L40.6519 20.6447L40.7409 20.5727L40.8119 20.4847L40.8709 20.3848L40.9039 20.2707L40.9159 20.1487V20.1357H40.7899V20.1487L40.7819 20.2487L40.7559 20.3418L40.7139 20.4217L40.6599 20.4937L40.5929 20.5537L40.5129 20.5997L40.4199 20.6297L40.3199 20.6377L40.2199 20.6297L40.1279 20.5997L40.0479 20.5537L39.9799 20.4937L39.9259 20.4227L39.8839 20.3427L39.8589 20.2497L39.8499 20.1497V20.1367L39.7339 20.1357Z" fill="#FBB231"/>
<path fill-rule="evenodd" clip-rule="evenodd" d="M40.1169 20.1357V20.3807H40.223V20.1697H40.3229L40.4489 20.3807H40.5339L40.408 20.1697H40.437L40.4659 20.1617L40.4909 20.1527L40.512 20.1357H40.1119H40.1169Z" fill="#FBB231"/>
<path fill-rule="evenodd" clip-rule="evenodd" d="M21.382 12.448L21.348 12.196L21.289 11.972L21.205 11.779L21.1 11.61L20.974 11.467L20.835 11.349L20.683 11.249L20.518 11.173L20.351 11.109L20.178 11.067L20.005 11.038L19.832 11.021H19.668L19.326 11.039L19.026 11.089L18.752 11.165L18.508 11.27L18.298 11.396L18.112 11.539L17.948 11.699L17.814 11.868L17.696 12.045L17.596 12.23L17.521 12.412L17.457 12.592L17.411 12.77L17.377 12.933L17.353 13.089L17.336 13.224L17.314 13.569L17.327 13.88L17.373 14.162L17.443 14.41L17.543 14.633L17.665 14.827L17.808 14.999L17.972 15.142L18.148 15.264L18.338 15.369L18.538 15.449L18.744 15.512L18.954 15.563L19.165 15.592L19.375 15.613H19.581H19.72H19.851H19.964H20.074L20.174 15.605L20.263 15.597L20.347 15.589L20.423 15.576L20.495 15.563L20.562 15.547L20.63 15.525L20.693 15.504L20.756 15.478L20.824 15.454L20.891 15.42L20.959 15.386L21.127 14.351L21.005 14.423L20.887 14.49L20.766 14.542L20.647 14.588L20.533 14.626L20.415 14.651L20.301 14.672L20.188 14.689L20.074 14.697H19.965H19.851H19.742L19.633 14.689L19.524 14.676L19.418 14.663L19.309 14.646L19.225 14.629L19.141 14.6L19.057 14.563L18.981 14.516L18.906 14.466L18.838 14.403L18.775 14.339L18.716 14.267L18.666 14.196L18.621 14.117L18.587 14.04L18.558 13.96L18.541 13.88L18.533 13.8V13.729L18.544 13.675H21.275L21.296 13.418L21.36 13.064L21.389 12.744L21.382 12.448ZM20.241 12.836H18.703L18.714 12.777L18.731 12.689L18.757 12.605L18.786 12.521L18.824 12.446L18.862 12.374L18.908 12.306L18.958 12.243L19.013 12.184L19.067 12.134L19.131 12.088L19.193 12.05L19.265 12.016L19.337 11.992L19.409 11.975L19.484 11.962H19.564L19.64 11.97L19.712 11.983L19.78 12L19.847 12.024L19.91 12.058L19.973 12.096L20.028 12.138L20.078 12.188L20.12 12.247L20.163 12.31L20.192 12.382L20.221 12.462L20.237 12.546L20.245 12.639L20.25 12.739L20.241 12.836Z" fill="white"/>
</svg>
