<svg width="58" height="15" viewBox="0 0 58 15" fill="none" xmlns="http://www.w3.org/2000/svg">
<path d="M47.6521 3.00105C46.741 2.5979 45.7463 2.42022 44.752 2.48305C44.094 2.48389 43.437 2.53571 42.787 2.63805C42.303 2.71105 42.2541 2.72304 41.9541 2.78804C41.7752 2.83131 41.6127 2.92544 41.4862 3.05907C41.3596 3.19269 41.2745 3.36008 41.241 3.54103L41.041 4.35603C40.929 4.87703 41.225 4.85605 41.357 4.81505C41.6729 4.69966 41.9955 4.60349 42.323 4.52705C42.8221 4.406 43.3327 4.33893 43.8461 4.32704C44.3457 4.30441 44.8452 4.37495 45.319 4.53505C45.4685 4.58956 45.5967 4.69032 45.685 4.82268C45.7733 4.95504 45.8171 5.11209 45.81 5.27104C45.8176 5.34868 45.8087 5.42706 45.784 5.50105C45.757 5.56505 45.705 5.62706 45.549 5.64806C44.622 5.70205 43.958 5.78704 43.155 5.90504C42.4449 5.99431 41.7511 6.18493 41.095 6.47105C40.534 6.69833 40.0486 7.07968 39.6951 7.57106C39.374 8.07685 39.2116 8.66718 39.229 9.26604C39.221 9.5551 39.2761 9.84243 39.3904 10.108C39.5047 10.3737 39.6756 10.6112 39.891 10.804C40.3681 11.2078 40.9796 11.4174 41.604 11.391C41.9461 11.396 42.2875 11.3624 42.6221 11.291C42.8898 11.2233 43.1517 11.134 43.405 11.024C43.6388 10.9219 43.8624 10.798 44.073 10.654C44.311 10.496 44.4731 10.383 44.686 10.245L44.693 10.258L44.634 10.52V10.525V10.53C44.6149 10.5989 44.6113 10.6713 44.6236 10.7417C44.6359 10.8122 44.6637 10.879 44.7051 10.9374C44.7465 10.9957 44.8003 11.0441 44.8628 11.079C44.9252 11.1139 44.9947 11.1344 45.0661 11.1391H45.0921C45.2991 11.1391 46.009 11.1391 46.341 11.1391H46.572C46.5763 11.1392 46.5805 11.1385 46.5845 11.1369C46.5884 11.1354 46.592 11.133 46.595 11.13C46.7575 11.1067 46.9097 11.0366 47.0331 10.9283C47.1565 10.82 47.2458 10.6781 47.2901 10.52L48.476 5.40504C48.5061 5.26663 48.5265 5.12628 48.537 4.98503C48.5545 4.85539 48.5642 4.72483 48.5661 4.59404C48.5805 4.26916 48.5022 3.94685 48.3404 3.66478C48.1786 3.38271 47.9398 3.15252 47.6521 3.00105ZM44.779 9.10106C44.5762 9.22819 44.3631 9.33821 44.142 9.43004C43.8739 9.5445 43.5865 9.60696 43.295 9.61406C42.9768 9.63317 42.6589 9.57122 42.371 9.43404C42.2663 9.37494 42.1808 9.28693 42.1248 9.18053C42.0687 9.07412 42.0445 8.95386 42.055 8.83406C42.0404 8.55063 42.1233 8.27072 42.2901 8.04103C42.4781 7.82938 42.7165 7.66845 42.983 7.57304C43.3315 7.46043 43.6898 7.38043 44.0531 7.33406C44.4241 7.28706 45.153 7.20304 45.253 7.20204C45.353 7.20104 45.41 7.15005 45.368 7.40205C45.349 7.51005 45.1371 8.37806 45.0401 8.77306C44.9854 8.90239 44.8965 9.01438 44.783 9.09703L44.779 9.10106Z" fill="#336699"/>
<path d="M27.42 2.51814C27.2147 2.53988 27.0168 2.60698 26.8405 2.71455C26.6643 2.82212 26.5142 2.96748 26.401 3.14015C26.401 3.14015 24.075 7.12813 23.847 7.52613C23.722 7.74113 23.596 7.60413 23.574 7.52613C23.558 7.42613 22.856 3.16715 22.856 3.16715C22.7993 2.97798 22.6815 2.81293 22.521 2.69785C22.3605 2.58278 22.1664 2.52415 21.969 2.53114H20.519C20.4418 2.52674 20.3646 2.54095 20.294 2.57258C20.2234 2.60421 20.1615 2.65233 20.1133 2.7129C20.0652 2.77347 20.0324 2.84472 20.0175 2.92063C20.0027 2.99655 20.0063 3.07491 20.028 3.14915C20.028 3.14915 21.137 9.43314 21.353 10.9111C21.461 11.7271 21.342 11.8731 21.342 11.8731L19.904 14.3792C19.694 14.7182 19.809 14.9971 20.157 14.9971H21.838C22.0433 14.9775 22.2415 14.9116 22.4177 14.8046C22.594 14.6976 22.7438 14.5522 22.856 14.3792L29.321 3.44315C29.321 3.44315 29.939 2.50915 29.369 2.51615C28.98 2.52315 27.42 2.51615 27.42 2.51615" fill="#003366"/>
<path d="M7.17801 4.87294C6.56964 5.26477 5.85238 5.45286 5.13002 5.40996H4.73001C4.65245 5.41451 4.57492 5.40036 4.50397 5.3687C4.43301 5.33704 4.3707 5.28878 4.32228 5.22801C4.27386 5.16724 4.24075 5.09572 4.22574 5.01948C4.21072 4.94325 4.21425 4.86452 4.23601 4.78993L4.72401 2.68495C4.76898 2.51207 4.86885 2.35844 5.00861 2.24718C5.14836 2.13591 5.32044 2.07302 5.49901 2.06795H6.03001C6.52099 2.03643 7.01069 2.14644 7.44101 2.38493C7.59788 2.4899 7.72382 2.63491 7.80576 2.80495C7.88769 2.97498 7.92266 3.16385 7.90701 3.35194C7.92386 3.64718 7.86565 3.94188 7.73782 4.20854C7.61 4.47521 7.41672 4.70515 7.17601 4.87694M10.681 1.63094C10.477 1.23766 10.1692 0.90776 9.79101 0.676956C9.35753 0.417806 8.87982 0.241166 8.38202 0.15596C7.74858 0.0530148 7.10777 0.0021698 6.46602 0.00395149H3.07802C2.89973 0.01174 2.72847 0.0756919 2.58873 0.186691C2.44899 0.29769 2.34794 0.450031 2.30002 0.621932L0.015014 10.556C-0.00712357 10.6303 -0.0110234 10.7089 0.00364623 10.7851C0.0183158 10.8613 0.0511213 10.9328 0.0992883 10.9936C0.147455 11.0545 0.209568 11.1028 0.280364 11.1345C0.351161 11.1662 0.428558 11.1805 0.506011 11.1759H2.13101C2.30996 11.1703 2.48227 11.1068 2.62215 10.995C2.76203 10.8833 2.86196 10.7292 2.90701 10.556L3.46701 8.14494C3.51284 7.9728 3.61283 7.81996 3.75221 7.70903C3.89159 7.5981 4.06298 7.53497 4.24101 7.52895H4.70401C6.33845 7.62508 7.96098 7.19772 9.33601 6.30894C9.85752 5.95252 10.2819 5.47171 10.5709 4.91002C10.8599 4.34832 11.0043 3.72346 10.991 3.09193C11.0117 2.58613 10.9054 2.0832 10.682 1.62895" fill="#003366"/>
<path d="M36.393 4.91178C35.7836 5.3009 35.0667 5.48711 34.345 5.44376H33.945C33.8675 5.44874 33.79 5.43493 33.719 5.40351C33.6481 5.3721 33.5857 5.32402 33.5373 5.26334C33.4889 5.20267 33.4559 5.13118 33.441 5.055C33.4262 4.97882 33.4299 4.9002 33.452 4.82578L33.939 2.71778C33.9849 2.54625 34.0848 2.39399 34.2237 2.28346C34.3627 2.17292 34.5335 2.10993 34.711 2.10377H35.244C35.7343 2.07602 36.2227 2.18471 36.655 2.41776C36.8107 2.52463 36.936 2.67013 37.0186 2.84C37.1011 3.00988 37.1382 3.19828 37.126 3.38676C37.1406 3.6824 37.0814 3.97704 36.9538 4.24412C36.8262 4.5112 36.6342 4.74233 36.395 4.91676M39.895 1.66676C39.6883 1.27388 39.3799 0.943723 39.002 0.710763C38.5685 0.450856 38.0897 0.275108 37.591 0.192758C36.9601 0.0883957 36.3214 0.0382187 35.682 0.0427636H32.282C32.1042 0.0518055 31.9338 0.116547 31.7949 0.227822C31.656 0.339098 31.5556 0.491261 31.508 0.662759L29.226 10.5988C29.2036 10.6726 29.1994 10.7509 29.2138 10.8267C29.2282 10.9025 29.2606 10.9738 29.3084 11.0344C29.3563 11.095 29.418 11.1431 29.4885 11.1747C29.5589 11.2063 29.6359 11.2204 29.713 11.2158H31.342C31.5201 11.2084 31.6913 11.1449 31.8312 11.0345C31.9711 10.9241 32.0725 10.7723 32.121 10.6008L32.671 8.18977C32.7176 8.01691 32.8186 7.86365 32.9591 7.75269C33.0996 7.64174 33.2721 7.579 33.451 7.57377H33.914C35.5505 7.67069 37.175 7.24142 38.55 6.34876C39.0703 5.99025 39.4937 5.50846 39.7823 4.94639C40.0709 4.38432 40.2158 3.75949 40.204 3.12776C40.2204 2.62264 40.1143 2.12206 39.895 1.66676Z" fill="#336699"/>
<path d="M18.422 2.99286C17.5111 2.58941 16.5163 2.41171 15.522 2.47485C14.8637 2.47537 14.2064 2.52688 13.556 2.62888C13.072 2.70288 13.024 2.71585 12.723 2.78085C12.5444 2.82412 12.3821 2.91831 12.2559 3.05197C12.1297 3.18563 12.045 3.35303 12.012 3.53387L11.812 4.34885C11.699 4.87085 11.998 4.84886 12.13 4.80786C12.4458 4.69377 12.7681 4.59826 13.095 4.52185C13.5938 4.39862 14.1044 4.32989 14.618 4.31686C15.1173 4.29431 15.6165 4.36485 16.09 4.52487C16.2398 4.57962 16.3681 4.68068 16.4564 4.81342C16.5447 4.94615 16.5884 5.10359 16.581 5.26285C16.5892 5.34016 16.5803 5.41833 16.555 5.49185C16.529 5.55685 16.476 5.61885 16.321 5.63885C15.394 5.69485 14.73 5.77987 13.921 5.89587C13.2108 5.98495 12.517 6.17554 11.861 6.46185C11.3001 6.68937 10.8148 7.07067 10.461 7.56186C10.1393 8.06699 9.9769 8.65723 9.99502 9.25586C9.98699 9.54492 10.0421 9.83226 10.1564 10.0979C10.2707 10.3635 10.4416 10.601 10.657 10.7939C11.1338 11.1975 11.7449 11.4071 12.369 11.3809C12.7114 11.3857 13.0532 11.3521 13.388 11.2809C13.655 11.2128 13.9162 11.1235 14.169 11.0139C14.403 10.9114 14.6269 10.7875 14.838 10.6439C15.075 10.4859 15.238 10.3729 15.45 10.2359L15.457 10.2479L15.398 10.5089V10.5169C15.3788 10.5857 15.3752 10.6579 15.3875 10.7282C15.3998 10.7986 15.4277 10.8653 15.4691 10.9235C15.5105 10.9817 15.5644 11.0299 15.6269 11.0645C15.6893 11.0992 15.7587 11.1195 15.83 11.1239V11.1299H15.857H17.106H17.338C17.3423 11.1303 17.3466 11.1297 17.3506 11.1281C17.3546 11.1266 17.3582 11.1241 17.361 11.1208C17.5241 11.0984 17.6772 11.029 17.8015 10.921C17.9258 10.813 18.016 10.6712 18.061 10.5128L19.246 5.39487C19.277 5.2573 19.2974 5.11756 19.307 4.97687C19.3249 4.84763 19.3343 4.71733 19.335 4.58685C19.3502 4.26185 19.2723 3.93928 19.1106 3.65695C18.9489 3.37463 18.71 3.14425 18.422 2.99286ZM15.55 9.09286C15.3475 9.22024 15.1344 9.32998 14.913 9.42087C14.6448 9.53482 14.3574 9.5969 14.066 9.60385C13.7483 9.62324 13.4308 9.56203 13.143 9.42587C13.0375 9.36611 12.9514 9.27712 12.8951 9.16962C12.8389 9.06212 12.8149 8.94066 12.826 8.81985C12.8112 8.5361 12.8949 8.25595 13.063 8.02686C13.2496 7.8149 13.4871 7.65387 13.753 7.55887C14.1021 7.44676 14.4605 7.36641 14.824 7.31885C15.194 7.27185 15.924 7.18887 16.024 7.18787C16.124 7.18687 16.179 7.13585 16.137 7.38785C16.118 7.49685 15.908 8.36385 15.81 8.75885C15.7552 8.89087 15.6653 9.00538 15.55 9.08987V9.09286Z" fill="#003366"/>
<path d="M49.199 11.2018C49.1269 11.1979 49.0565 11.1779 48.9932 11.1431C48.9299 11.1083 48.8752 11.0597 48.8332 11.0009C48.7912 10.9422 48.763 10.8747 48.7507 10.8035C48.7384 10.7323 48.7423 10.6592 48.762 10.5898C48.771 10.5568 48.798 10.4388 48.841 10.2508L50.857 1.08475L50.933 0.736751L50.939 0.718751C50.9889 0.550602 51.0901 0.402294 51.2286 0.294673C51.3671 0.187052 51.5358 0.125529 51.711 0.118751H53.167C53.2439 0.114969 53.3206 0.129508 53.3908 0.16117C53.461 0.192832 53.5226 0.24071 53.5706 0.300863C53.6187 0.361016 53.6518 0.431721 53.6671 0.507156C53.6825 0.582591 53.6797 0.660598 53.659 0.734751L51.485 10.5828V10.6018C51.435 10.77 51.3336 10.9183 51.1949 11.0259C51.0563 11.1335 50.8874 11.195 50.712 11.2018H49.199Z" fill="#336699"/>
<path d="M55.371 2.12299C55.3179 2.1379 55.2637 2.14895 55.209 2.15601C55.1568 2.16439 55.1039 2.16873 55.051 2.16901C54.984 2.17383 54.9168 2.16476 54.8535 2.1424C54.7901 2.12003 54.7321 2.08483 54.683 2.039C54.5889 1.92141 54.5438 1.77202 54.557 1.62198V0.781982H54.377V0.557983H54.557V0.10498H54.822V0.557983H55.37V0.781982H54.822V1.50198C54.822 1.58398 54.822 1.64898 54.827 1.69598C54.8312 1.74194 54.8448 1.78655 54.867 1.827C54.886 1.86319 54.9162 1.89231 54.953 1.91C55.006 1.93001 55.0625 1.93886 55.119 1.936C55.1647 1.93555 55.21 1.92915 55.254 1.91699C55.2881 1.9087 55.3215 1.898 55.354 1.88498H55.367L55.371 2.12299Z" fill="#336699"/>
<path d="M57.9991 2.13875H57.732V1.23876C57.7327 1.17198 57.7297 1.10523 57.7231 1.03878C57.7199 0.986086 57.7066 0.934485 57.6841 0.886768C57.6638 0.846754 57.6307 0.814702 57.59 0.795765C57.5353 0.771771 57.4757 0.760803 57.416 0.763752C57.3382 0.764504 57.2617 0.784066 57.1931 0.820759C57.1138 0.859833 57.039 0.907447 56.97 0.962757C56.97 0.984757 56.97 1.00977 56.975 1.03777C56.98 1.06577 56.975 1.09476 56.975 1.12276V2.13576H56.709V1.23577C56.709 1.16677 56.709 1.09975 56.7 1.03575C56.6965 0.983647 56.6829 0.932723 56.66 0.885761C56.6397 0.845644 56.6072 0.813074 56.567 0.792774C56.5116 0.770143 56.4519 0.759905 56.392 0.762775C56.3155 0.763455 56.2402 0.781928 56.172 0.816761C56.0952 0.85506 56.0222 0.900616 55.954 0.952778V2.13378H55.689V0.55376H55.954V0.727771C56.0305 0.664348 56.1144 0.610604 56.204 0.567768C56.2866 0.529032 56.3768 0.509203 56.468 0.509754C56.5636 0.50659 56.6581 0.530163 56.741 0.577778C56.8152 0.621972 56.8738 0.687975 56.909 0.766773C56.9972 0.686639 57.0961 0.619299 57.203 0.566761C57.2919 0.52629 57.3884 0.505478 57.4861 0.505756C57.5583 0.500219 57.6307 0.51162 57.6978 0.539051C57.7648 0.566482 57.8244 0.609204 57.872 0.663776C57.9612 0.79294 58.0048 0.948067 57.996 1.10476L57.9991 2.13875Z" fill="#336699"/>
</svg>
