<svg width="47" height="22" viewBox="0 0 47 22" fill="none" xmlns="http://www.w3.org/2000/svg">
<path d="M13.8298 5.6311C13.6528 5.7921 13.475 5.95306 13.301 6.11706C12.6714 6.6679 12.2355 7.40653 12.0578 8.22399C11.9406 8.77954 11.9449 9.35388 12.07 9.90771C12.1951 10.4615 12.4382 10.9819 12.7829 11.4331C13.1175 11.9223 13.5827 12.3076 14.1257 12.545C14.1907 12.572 14.2581 12.5961 14.3391 12.6261C14.2661 12.8261 14.2008 13.026 14.1218 13.213C13.6802 14.3267 13.0465 15.3543 12.2497 16.249C12.0947 16.4142 11.9275 16.5676 11.7497 16.708C11.4804 16.9488 11.1541 17.1164 10.8015 17.1948C10.4488 17.2733 10.082 17.2599 9.73604 17.156C9.36104 17.047 8.98992 16.9241 8.61592 16.8081C8.23483 16.6793 7.83754 16.6038 7.43575 16.584C6.94305 16.5945 6.4568 16.6995 6.00362 16.8931C5.65387 17.0311 5.29644 17.1483 4.93282 17.244C4.6608 17.3 4.37969 17.2967 4.10909 17.2342C3.83848 17.1718 3.58487 17.0517 3.36495 16.8821C2.8973 16.5519 2.49457 16.1382 2.17696 15.662C1.34991 14.4975 0.728958 13.1997 0.34102 11.8251C-0.00716966 10.6055 -0.0911318 9.32562 0.094926 8.07104C0.233286 6.965 0.713675 5.92975 1.46895 5.10998C1.84303 4.69804 2.31126 4.38284 2.8337 4.19128C3.35613 3.99972 3.91724 3.93752 4.46895 4.01C5.04912 4.08739 5.6209 4.21827 6.17696 4.40099C6.41096 4.46899 6.65092 4.52007 6.88692 4.58007C7.2185 4.65504 7.56425 4.63802 7.88692 4.531C8.34692 4.396 8.80387 4.2421 9.26387 4.1051C9.9386 3.89391 10.6547 3.85099 11.3498 3.9801C12.2297 4.16377 13.0208 4.64207 13.592 5.33605C13.668 5.42205 13.7421 5.51004 13.8171 5.59704C13.8223 5.60804 13.8263 5.61946 13.8298 5.6311Z" fill="#131309"/>
<path d="M10.3885 0C10.4085 0.191652 10.4167 0.384365 10.4134 0.577026C10.3513 1.56541 9.93533 2.49841 9.24151 3.20508C8.93811 3.54937 8.56243 3.82245 8.14141 4.005C7.77114 4.13182 7.38374 4.20135 6.99248 4.21106C6.98648 4.21106 6.97944 4.20505 6.97344 4.20105C6.90949 3.19955 7.22568 2.21072 7.85869 1.43201C8.49171 0.653296 9.39502 0.141935 10.3885 0Z" fill="#131309"/>
<path d="M18.7115 2.70014C19.9017 2.50675 21.1059 2.41275 22.3116 2.41914C23.7735 2.30774 25.2253 2.73769 26.3907 3.62714C26.8121 4.01084 27.1443 4.48199 27.3644 5.00764C27.5845 5.53329 27.687 6.10069 27.6647 6.67011C27.6928 7.23673 27.6079 7.80331 27.4152 8.33686C27.2224 8.87042 26.9254 9.36034 26.5416 9.77815C25.9465 10.3306 25.2461 10.7571 24.4821 11.0321C23.718 11.307 22.9065 11.4247 22.0958 11.3781C21.5888 11.3943 21.0814 11.3507 20.5846 11.2481V17.0751H18.7076L18.7115 2.70014ZM20.5885 9.71418C21.0982 9.82886 21.6204 9.87958 22.1427 9.86518C24.4087 9.86518 25.7897 8.76515 25.7897 6.75715C25.7897 4.83715 24.4295 3.90815 22.3575 3.90815C21.7637 3.89178 21.17 3.94243 20.5875 4.05915L20.5885 9.71418Z" fill="#131309"/>
<path d="M34.4386 17.0732L34.2878 15.7572H34.2228C33.852 16.2511 33.3691 16.6497 32.8136 16.9199C32.2582 17.1901 31.6465 17.3243 31.029 17.3113C30.6182 17.3415 30.2053 17.2861 29.8171 17.1486C29.4288 17.0111 29.0733 16.7944 28.7731 16.5124C28.4729 16.2305 28.2345 15.8893 28.0729 15.5104C27.9114 15.1315 27.8302 14.7231 27.8346 14.3113C27.8346 11.7863 30.0799 10.4053 34.1149 10.4263V10.2102C34.1568 9.88661 34.1245 9.55784 34.0207 9.24853C33.9168 8.93922 33.7439 8.65746 33.5153 8.42468C33.2867 8.1919 33.0083 8.01417 32.7009 7.90478C32.3935 7.79539 32.0652 7.75719 31.7409 7.79321C30.7799 7.79624 29.8383 8.06527 29.0207 8.57031L28.59 7.31823C29.6248 6.69516 30.8129 6.37376 32.0207 6.39025C35.2157 6.39025 35.9919 8.5702 35.9919 10.6632V14.5692C35.9778 15.406 36.0356 16.2424 36.1647 17.0692L34.4386 17.0732ZM34.1589 11.7423C32.0869 11.6993 29.735 12.0662 29.735 14.0952C29.7155 14.3364 29.748 14.5789 29.8307 14.8063C29.9135 15.0336 30.0445 15.2405 30.2145 15.4126C30.3846 15.5847 30.5898 15.7182 30.8161 15.8037C31.0424 15.8892 31.2847 15.9248 31.5261 15.9082C32.0781 15.9226 32.6204 15.761 33.0744 15.4465C33.5284 15.1321 33.8704 14.6812 34.051 14.1593C34.118 13.9662 34.1544 13.7636 34.1589 13.5592V11.7423Z" fill="#131309"/>
<path d="M38.5196 6.62708L40.8067 12.7991C41.0437 13.4891 41.3066 14.3101 41.4756 14.9351H41.5186C41.7126 14.3091 41.9286 13.511 42.1866 12.755L44.2589 6.6261H46.2676L43.4185 14.072C42.0595 17.654 41.1305 19.4891 39.8355 20.6111C39.1785 21.2165 38.3751 21.6404 37.5045 21.8411L37.0298 20.2411C37.6379 20.0404 38.2016 19.7254 38.6915 19.3131C39.382 18.7422 39.93 18.018 40.2916 17.1981C40.3684 17.0573 40.4194 16.9039 40.4424 16.7451C40.4257 16.5726 40.382 16.4039 40.3126 16.2451L36.4498 6.62012L38.5196 6.62708Z" fill="#131309"/>
</svg>
