<svg width="58" height="18" viewBox="0 0 58 18" fill="none" xmlns="http://www.w3.org/2000/svg">
<path d="M25.1541 17.6842H20.3881L23.3651 0.326172H28.1291L25.1541 17.6842Z" fill="#0066B2"/>
<path d="M16.5361 0.327164L11.9951 12.2652L11.4571 9.69417L9.85706 1.88918C9.85706 1.88918 9.66405 0.326172 7.59805 0.326172H0.0910492L0.00305176 0.620163C1.75242 1.03435 3.43163 1.7028 4.98706 2.60417L9.12405 17.6842H14.0871L21.6661 0.327164H16.5361Z" fill="#0066B2"/>
<path d="M53.6261 17.684H58.0001L54.1831 0.326985H50.3541C49.898 0.284043 49.44 0.385853 49.0451 0.617954C48.6502 0.850056 48.3384 1.20065 48.1541 1.61998L41.0541 17.684H46.0191L47.0121 15.106H53.0681L53.6261 17.684ZM48.3831 11.548L50.8831 5.04799L52.2921 11.548H48.3831Z" fill="#0066B2"/>
<path d="M41.5621 4.49199L42.2411 0.757996C40.8602 0.289476 39.416 0.0338861 37.9581 0C35.5941 0 29.9801 0.981988 29.9801 5.75699C29.9801 10.25 36.5691 10.306 36.5691 12.664C36.5691 15.022 30.6591 14.602 28.7081 13.114L28.0011 17.014C29.7109 17.6938 31.5384 18.0279 33.3781 17.997C36.6281 17.997 41.5331 16.397 41.5331 12.044C41.5331 7.52299 34.8851 7.10099 34.8851 5.13499C34.8851 3.16899 39.5241 3.42499 41.5621 4.49199Z" fill="#0066B2"/>
<path d="M11.4571 10.2012L9.85706 1.97416C9.76147 1.46338 9.47437 1.0084 9.05447 0.702262C8.63458 0.396122 8.11359 0.261937 7.59805 0.327155H0.0910492L0.00305176 0.636161C2.58832 1.29482 5.00028 2.50557 7.07306 4.18516C9.04129 5.76694 10.5542 7.84303 11.4571 10.2012Z" fill="#F9A533"/>
</svg>
